<svg width="595" height="72" viewBox="0 0 595 72" fill="none" xmlns="http://www.w3.org/2000/svg">
<path d="M106.764 7.64648C106.764 8.44336 106.602 9.16211 106.277 9.80273C105.957 10.4434 105.525 10.9434 104.982 11.3027C104.541 11.5801 104.092 11.7656 103.635 11.8594C103.182 11.9531 102.602 12 101.895 12H99.8848V3.27539H101.871C102.691 3.27539 103.334 3.33789 103.799 3.46289C104.268 3.58398 104.666 3.75195 104.994 3.9668C105.557 4.33789 105.992 4.83203 106.301 5.44922C106.609 6.0625 106.764 6.79492 106.764 7.64648ZM105.557 7.62891C105.557 6.95703 105.445 6.38477 105.223 5.91211C105 5.43555 104.67 5.06445 104.232 4.79883C103.924 4.61133 103.594 4.47656 103.242 4.39453C102.891 4.3125 102.453 4.27148 101.93 4.27148H101.045V11.0039H101.93C102.445 11.0039 102.896 10.9629 103.283 10.8809C103.67 10.7988 104.023 10.6465 104.344 10.4238C104.746 10.1504 105.049 9.78711 105.252 9.33398C105.455 8.87695 105.557 8.30859 105.557 7.62891ZM115.611 12H114.111L112.916 10.752C112.518 11.2598 112.107 11.625 111.686 11.8477C111.268 12.0703 110.793 12.1816 110.262 12.1816C109.473 12.1816 108.82 11.9453 108.305 11.4727C107.793 10.9961 107.537 10.373 107.537 9.60352C107.537 9.26758 107.584 8.96875 107.678 8.70703C107.771 8.44531 107.896 8.20898 108.053 7.99805C108.205 7.79492 108.381 7.61719 108.58 7.46484C108.779 7.30859 108.971 7.17383 109.154 7.06055C108.76 6.79492 108.465 6.51562 108.27 6.22266C108.074 5.92969 107.977 5.56055 107.977 5.11523C107.977 4.83789 108.031 4.58203 108.141 4.34766C108.254 4.10938 108.4 3.90039 108.58 3.7207C108.768 3.53711 109.01 3.38672 109.307 3.26953C109.607 3.15234 109.936 3.09375 110.291 3.09375C110.939 3.09375 111.469 3.26562 111.879 3.60938C112.289 3.94922 112.494 4.38086 112.494 4.9043C112.494 5.0957 112.469 5.29492 112.418 5.50195C112.371 5.70508 112.283 5.90234 112.154 6.09375C112.025 6.28516 111.855 6.46484 111.645 6.63281C111.438 6.80078 111.16 6.94727 110.812 7.07227L112.875 9.19336C112.93 8.87305 112.963 8.52539 112.975 8.15039C112.986 7.77148 112.992 7.2793 112.992 6.67383H114.135V7.23633C114.135 7.61133 114.086 8.03516 113.988 8.50781C113.895 8.97656 113.738 9.42188 113.52 9.84375L115.611 12ZM112.406 10.2363L109.711 7.47656C109.613 7.53906 109.516 7.61328 109.418 7.69922C109.32 7.78516 109.213 7.91406 109.096 8.08594C109.002 8.22266 108.918 8.40234 108.844 8.625C108.773 8.84375 108.738 9.07617 108.738 9.32227C108.738 9.87695 108.902 10.334 109.23 10.6934C109.562 11.0488 110.01 11.2266 110.572 11.2266C110.947 11.2266 111.285 11.1484 111.586 10.9922C111.887 10.832 112.16 10.5801 112.406 10.2363ZM110.262 6.65625C110.48 6.58203 110.66 6.48242 110.801 6.35742C110.945 6.23242 111.057 6.0957 111.135 5.94727C111.205 5.81055 111.258 5.66602 111.293 5.51367C111.328 5.36133 111.346 5.19727 111.346 5.02148C111.346 4.64258 111.234 4.34961 111.012 4.14258C110.793 3.93555 110.537 3.83203 110.244 3.83203C109.896 3.83203 109.623 3.94922 109.424 4.18359C109.225 4.41797 109.125 4.71094 109.125 5.0625C109.125 5.21875 109.139 5.35352 109.166 5.4668C109.197 5.57617 109.26 5.70508 109.354 5.85352C109.436 5.97461 109.549 6.10352 109.693 6.24023C109.842 6.37695 110.031 6.51562 110.262 6.65625ZM122.355 12H121.055L117.199 4.47656V12H116.115V3.27539H117.762L121.271 10.1836V3.27539H122.355V12ZM105.393 19.9062C105.393 20.2852 105.324 20.6445 105.188 20.9844C105.055 21.3203 104.869 21.6074 104.631 21.8457C104.33 22.1426 103.977 22.3672 103.57 22.5195C103.164 22.6719 102.65 22.748 102.029 22.748H101.045V26H99.8848V17.2754H102.076C102.592 17.2754 103.031 17.3184 103.395 17.4043C103.758 17.4902 104.078 17.6289 104.355 17.8203C104.68 18.043 104.934 18.3262 105.117 18.6699C105.301 19.0098 105.393 19.4219 105.393 19.9062ZM104.186 19.9355C104.186 19.6348 104.133 19.373 104.027 19.1504C103.926 18.9277 103.77 18.7461 103.559 18.6055C103.375 18.4844 103.16 18.3984 102.914 18.3477C102.672 18.2969 102.369 18.2715 102.006 18.2715H101.045V21.7578H101.836C102.305 21.7578 102.684 21.7207 102.973 21.6465C103.262 21.5684 103.502 21.4316 103.693 21.2363C103.865 21.0605 103.99 20.8691 104.068 20.6621C104.146 20.4551 104.186 20.2129 104.186 19.9355ZM109.887 20.6387H109.828C109.746 20.6152 109.658 20.6016 109.564 20.5977C109.475 20.5898 109.365 20.5859 109.236 20.5859C108.939 20.5859 108.645 20.6504 108.352 20.7793C108.059 20.9082 107.781 21.0996 107.52 21.3535V26H106.418V19.4551H107.52V20.4277C107.922 20.0723 108.271 19.8223 108.568 19.6777C108.869 19.5293 109.16 19.4551 109.441 19.4551C109.555 19.4551 109.639 19.459 109.693 19.4668C109.752 19.4707 109.816 19.4785 109.887 19.4902V20.6387ZM116.127 22.7305C116.127 23.832 115.861 24.6836 115.33 25.2852C114.799 25.8828 114.092 26.1816 113.209 26.1816C112.299 26.1816 111.582 25.873 111.059 25.2559C110.539 24.6348 110.279 23.793 110.279 22.7305C110.279 21.6367 110.547 20.7871 111.082 20.1816C111.621 19.5762 112.33 19.2734 113.209 19.2734C114.092 19.2734 114.799 19.5762 115.33 20.1816C115.861 20.7832 116.127 21.6328 116.127 22.7305ZM114.99 22.7305C114.99 21.8828 114.836 21.2539 114.527 20.8438C114.219 20.4297 113.779 20.2227 113.209 20.2227C112.635 20.2227 112.191 20.4297 111.879 20.8438C111.57 21.2539 111.416 21.8828 111.416 22.7305C111.416 23.5508 111.57 24.1738 111.879 24.5996C112.191 25.0215 112.635 25.2324 113.209 25.2324C113.775 25.2324 114.213 25.0254 114.521 24.6113C114.834 24.1934 114.99 23.5664 114.99 22.7305ZM119.238 26.1289C118.637 26.1289 118.168 25.959 117.832 25.6191C117.496 25.2754 117.328 24.7344 117.328 23.9961V20.3691H116.584V19.4551H117.328V17.5742H118.43V19.4551H120.457V20.3691H118.43V23.4805C118.43 23.8125 118.436 24.0684 118.447 24.248C118.459 24.4277 118.504 24.5957 118.582 24.752C118.648 24.8887 118.756 24.9922 118.904 25.0625C119.053 25.1289 119.254 25.1621 119.508 25.1621C119.688 25.1621 119.861 25.1367 120.029 25.0859C120.197 25.0312 120.318 24.9863 120.393 24.9512H120.457V25.9414C120.25 26 120.039 26.0449 119.824 26.0762C119.613 26.1113 119.418 26.1289 119.238 26.1289ZM124.119 26.1523C123.076 26.1523 122.266 25.8594 121.688 25.2734C121.113 24.6836 120.826 23.8477 120.826 22.7656C120.826 21.6992 121.105 20.8516 121.664 20.2227C122.223 19.5898 122.953 19.2734 123.855 19.2734C124.262 19.2734 124.621 19.332 124.934 19.4492C125.246 19.5664 125.52 19.75 125.754 20C125.988 20.25 126.168 20.5566 126.293 20.9199C126.418 21.2793 126.48 21.7207 126.48 22.2441V22.8418H121.945C121.945 23.6035 122.137 24.1855 122.52 24.5879C122.902 24.9902 123.432 25.1914 124.107 25.1914C124.35 25.1914 124.586 25.1641 124.816 25.1094C125.051 25.0547 125.262 24.9844 125.449 24.8984C125.648 24.8086 125.816 24.7227 125.953 24.6406C126.09 24.5547 126.203 24.4746 126.293 24.4004H126.357V25.6016C126.229 25.6523 126.068 25.7168 125.877 25.7949C125.686 25.8691 125.514 25.9277 125.361 25.9707C125.146 26.0293 124.951 26.0742 124.775 26.1055C124.604 26.1367 124.385 26.1523 124.119 26.1523ZM125.408 21.998C125.4 21.7012 125.365 21.4453 125.303 21.2305C125.24 21.0156 125.15 20.834 125.033 20.6855C124.904 20.5215 124.738 20.3965 124.535 20.3105C124.336 20.2246 124.088 20.1816 123.791 20.1816C123.498 20.1816 123.248 20.2266 123.041 20.3164C122.838 20.4023 122.652 20.5293 122.484 20.6973C122.32 20.8691 122.195 21.0605 122.109 21.2715C122.023 21.4785 121.969 21.7207 121.945 21.998H125.408ZM130.195 26.1465C129.746 26.1465 129.334 26.0781 128.959 25.9414C128.584 25.8008 128.262 25.5898 127.992 25.3086C127.723 25.0273 127.514 24.6738 127.365 24.248C127.217 23.8184 127.143 23.3145 127.143 22.7363C127.143 22.1621 127.219 21.666 127.371 21.248C127.527 20.8301 127.734 20.4785 127.992 20.1934C128.25 19.9082 128.57 19.6895 128.953 19.5371C129.34 19.3809 129.754 19.3027 130.195 19.3027C130.555 19.3027 130.9 19.3535 131.232 19.4551C131.568 19.5566 131.867 19.6738 132.129 19.8066V21.043H132.064C131.986 20.9766 131.885 20.9004 131.76 20.8145C131.639 20.7285 131.49 20.6406 131.314 20.5508C131.162 20.4727 130.982 20.4043 130.775 20.3457C130.568 20.2871 130.369 20.2578 130.178 20.2578C129.607 20.2578 129.148 20.4746 128.801 20.9082C128.457 21.3379 128.285 21.9473 128.285 22.7363C128.285 23.5098 128.451 24.1133 128.783 24.5469C129.119 24.9766 129.584 25.1914 130.178 25.1914C130.537 25.1914 130.879 25.1172 131.203 24.9688C131.527 24.8203 131.814 24.6289 132.064 24.3945H132.129V25.6309C132.02 25.6816 131.883 25.7441 131.719 25.8184C131.555 25.8887 131.406 25.9414 131.273 25.9766C131.086 26.0312 130.918 26.0723 130.77 26.0996C130.621 26.1309 130.43 26.1465 130.195 26.1465ZM135.117 26.1289C134.516 26.1289 134.047 25.959 133.711 25.6191C133.375 25.2754 133.207 24.7344 133.207 23.9961V20.3691H132.463V19.4551H133.207V17.5742H134.309V19.4551H136.336V20.3691H134.309V23.4805C134.309 23.8125 134.314 24.0684 134.326 24.248C134.338 24.4277 134.383 24.5957 134.461 24.752C134.527 24.8887 134.635 24.9922 134.783 25.0625C134.932 25.1289 135.133 25.1621 135.387 25.1621C135.566 25.1621 135.74 25.1367 135.908 25.0859C136.076 25.0312 136.197 24.9863 136.271 24.9512H136.336V25.9414C136.129 26 135.918 26.0449 135.703 26.0762C135.492 26.1113 135.297 26.1289 135.117 26.1289ZM138.281 26H137.18V19.4551H138.281V26ZM138.357 18.3594H137.104V17.2168H138.357V18.3594ZM145.283 22.7305C145.283 23.832 145.018 24.6836 144.486 25.2852C143.955 25.8828 143.248 26.1816 142.365 26.1816C141.455 26.1816 140.738 25.873 140.215 25.2559C139.695 24.6348 139.436 23.793 139.436 22.7305C139.436 21.6367 139.703 20.7871 140.238 20.1816C140.777 19.5762 141.486 19.2734 142.365 19.2734C143.248 19.2734 143.955 19.5762 144.486 20.1816C145.018 20.7832 145.283 21.6328 145.283 22.7305ZM144.146 22.7305C144.146 21.8828 143.992 21.2539 143.684 20.8438C143.375 20.4297 142.936 20.2227 142.365 20.2227C141.791 20.2227 141.348 20.4297 141.035 20.8438C140.727 21.2539 140.572 21.8828 140.572 22.7305C140.572 23.5508 140.727 24.1738 141.035 24.5996C141.348 25.0215 141.791 25.2324 142.365 25.2324C142.932 25.2324 143.369 25.0254 143.678 24.6113C143.99 24.1934 144.146 23.5664 144.146 22.7305ZM151.559 26H150.457V22.2734C150.457 21.9727 150.441 21.6934 150.41 21.4355C150.383 21.1738 150.328 20.9648 150.246 20.8086C150.156 20.6445 150.031 20.5234 149.871 20.4453C149.711 20.3633 149.492 20.3223 149.215 20.3223C148.941 20.3223 148.658 20.3965 148.365 20.5449C148.076 20.6895 147.793 20.8789 147.516 21.1133V26H146.414V19.4551H147.516V20.1816C147.844 19.8887 148.168 19.6641 148.488 19.5078C148.809 19.3516 149.146 19.2734 149.502 19.2734C150.146 19.2734 150.65 19.4863 151.014 19.9121C151.377 20.334 151.559 20.9473 151.559 21.752V26ZM102.316 40.1582C101.684 40.1582 101.145 40.0938 100.699 39.9648C100.258 39.832 99.8418 39.6699 99.4512 39.4785V38.0254H99.5332C99.916 38.3848 100.35 38.6641 100.834 38.8633C101.318 39.0586 101.785 39.1562 102.234 39.1562C102.875 39.1562 103.359 39.0234 103.688 38.7578C104.016 38.4883 104.18 38.1348 104.18 37.6973C104.18 37.3496 104.094 37.0664 103.922 36.8477C103.75 36.6289 103.477 36.4668 103.102 36.3613C102.832 36.2832 102.586 36.2188 102.363 36.168C102.141 36.1172 101.861 36.0488 101.525 35.9629C101.225 35.8848 100.955 35.7852 100.717 35.6641C100.479 35.543 100.268 35.3848 100.084 35.1895C99.9043 34.998 99.7637 34.7734 99.6621 34.5156C99.5645 34.2539 99.5156 33.9531 99.5156 33.6133C99.5156 32.9062 99.791 32.3145 100.342 31.8379C100.893 31.3574 101.596 31.1172 102.451 31.1172C102.939 31.1172 103.4 31.166 103.834 31.2637C104.271 31.3613 104.676 31.5 105.047 31.6797V33.0684H104.959C104.682 32.8145 104.326 32.5938 103.893 32.4062C103.459 32.2148 103.004 32.1191 102.527 32.1191C101.988 32.1191 101.553 32.2461 101.221 32.5C100.889 32.75 100.723 33.0801 100.723 33.4902C100.723 33.8613 100.82 34.1562 101.016 34.375C101.211 34.5938 101.494 34.7539 101.865 34.8555C102.111 34.9219 102.412 34.998 102.768 35.084C103.123 35.166 103.418 35.2422 103.652 35.3125C104.254 35.4961 104.693 35.7734 104.971 36.1445C105.248 36.5156 105.387 36.9727 105.387 37.5156C105.387 37.8555 105.316 38.1914 105.176 38.5234C105.039 38.8555 104.846 39.1367 104.596 39.3672C104.314 39.6211 103.996 39.8164 103.641 39.9531C103.289 40.0898 102.848 40.1582 102.316 40.1582ZM109.33 40.1523C108.287 40.1523 107.477 39.8594 106.898 39.2734C106.324 38.6836 106.037 37.8477 106.037 36.7656C106.037 35.6992 106.316 34.8516 106.875 34.2227C107.434 33.5898 108.164 33.2734 109.066 33.2734C109.473 33.2734 109.832 33.332 110.145 33.4492C110.457 33.5664 110.73 33.75 110.965 34C111.199 34.25 111.379 34.5566 111.504 34.9199C111.629 35.2793 111.691 35.7207 111.691 36.2441V36.8418H107.156C107.156 37.6035 107.348 38.1855 107.73 38.5879C108.113 38.9902 108.643 39.1914 109.318 39.1914C109.561 39.1914 109.797 39.1641 110.027 39.1094C110.262 39.0547 110.473 38.9844 110.66 38.8984C110.859 38.8086 111.027 38.7227 111.164 38.6406C111.301 38.5547 111.414 38.4746 111.504 38.4004H111.568V39.6016C111.439 39.6523 111.279 39.7168 111.088 39.7949C110.896 39.8691 110.725 39.9277 110.572 39.9707C110.357 40.0293 110.162 40.0742 109.986 40.1055C109.814 40.1367 109.596 40.1523 109.33 40.1523ZM110.619 35.998C110.611 35.7012 110.576 35.4453 110.514 35.2305C110.451 35.0156 110.361 34.834 110.244 34.6855C110.115 34.5215 109.949 34.3965 109.746 34.3105C109.547 34.2246 109.299 34.1816 109.002 34.1816C108.709 34.1816 108.459 34.2266 108.252 34.3164C108.049 34.4023 107.863 34.5293 107.695 34.6973C107.531 34.8691 107.406 35.0605 107.32 35.2715C107.234 35.4785 107.18 35.7207 107.156 35.998H110.619ZM116.273 34.6387H116.215C116.133 34.6152 116.045 34.6016 115.951 34.5977C115.861 34.5898 115.752 34.5859 115.623 34.5859C115.326 34.5859 115.031 34.6504 114.738 34.7793C114.445 34.9082 114.168 35.0996 113.906 35.3535V40H112.805V33.4551H113.906V34.4277C114.309 34.0723 114.658 33.8223 114.955 33.6777C115.256 33.5293 115.547 33.4551 115.828 33.4551C115.941 33.4551 116.025 33.459 116.08 33.4668C116.139 33.4707 116.203 33.4785 116.273 33.4902V34.6387ZM122.273 33.4551L119.807 40H118.816L116.367 33.4551H117.557L119.35 38.5059L121.125 33.4551H122.273ZM124.23 40H123.129V33.4551H124.23V40ZM124.307 32.3594H123.053V31.2168H124.307V32.3594ZM128.449 40.1465C128 40.1465 127.588 40.0781 127.213 39.9414C126.838 39.8008 126.516 39.5898 126.246 39.3086C125.977 39.0273 125.768 38.6738 125.619 38.248C125.471 37.8184 125.396 37.3145 125.396 36.7363C125.396 36.1621 125.473 35.666 125.625 35.248C125.781 34.8301 125.988 34.4785 126.246 34.1934C126.504 33.9082 126.824 33.6895 127.207 33.5371C127.594 33.3809 128.008 33.3027 128.449 33.3027C128.809 33.3027 129.154 33.3535 129.486 33.4551C129.822 33.5566 130.121 33.6738 130.383 33.8066V35.043H130.318C130.24 34.9766 130.139 34.9004 130.014 34.8145C129.893 34.7285 129.744 34.6406 129.568 34.5508C129.416 34.4727 129.236 34.4043 129.029 34.3457C128.822 34.2871 128.623 34.2578 128.432 34.2578C127.861 34.2578 127.402 34.4746 127.055 34.9082C126.711 35.3379 126.539 35.9473 126.539 36.7363C126.539 37.5098 126.705 38.1133 127.037 38.5469C127.373 38.9766 127.838 39.1914 128.432 39.1914C128.791 39.1914 129.133 39.1172 129.457 38.9688C129.781 38.8203 130.068 38.6289 130.318 38.3945H130.383V39.6309C130.273 39.6816 130.137 39.7441 129.973 39.8184C129.809 39.8887 129.66 39.9414 129.527 39.9766C129.34 40.0312 129.172 40.0723 129.023 40.0996C128.875 40.1309 128.684 40.1465 128.449 40.1465ZM134.232 40.1523C133.189 40.1523 132.379 39.8594 131.801 39.2734C131.227 38.6836 130.939 37.8477 130.939 36.7656C130.939 35.6992 131.219 34.8516 131.777 34.2227C132.336 33.5898 133.066 33.2734 133.969 33.2734C134.375 33.2734 134.734 33.332 135.047 33.4492C135.359 33.5664 135.633 33.75 135.867 34C136.102 34.25 136.281 34.5566 136.406 34.9199C136.531 35.2793 136.594 35.7207 136.594 36.2441V36.8418H132.059C132.059 37.6035 132.25 38.1855 132.633 38.5879C133.016 38.9902 133.545 39.1914 134.221 39.1914C134.463 39.1914 134.699 39.1641 134.93 39.1094C135.164 39.0547 135.375 38.9844 135.562 38.8984C135.762 38.8086 135.93 38.7227 136.066 38.6406C136.203 38.5547 136.316 38.4746 136.406 38.4004H136.471V39.6016C136.342 39.6523 136.182 39.7168 135.99 39.7949C135.799 39.8691 135.627 39.9277 135.475 39.9707C135.26 40.0293 135.064 40.0742 134.889 40.1055C134.717 40.1367 134.498 40.1523 134.232 40.1523ZM135.521 35.998C135.514 35.7012 135.479 35.4453 135.416 35.2305C135.354 35.0156 135.264 34.834 135.146 34.6855C135.018 34.5215 134.852 34.3965 134.648 34.3105C134.449 34.2246 134.201 34.1816 133.904 34.1816C133.611 34.1816 133.361 34.2266 133.154 34.3164C132.951 34.4023 132.766 34.5293 132.598 34.6973C132.434 34.8691 132.309 35.0605 132.223 35.2715C132.137 35.4785 132.082 35.7207 132.059 35.998H135.521ZM139.477 40.1582C139.039 40.1582 138.629 40.0996 138.246 39.9824C137.867 39.8652 137.553 39.7402 137.303 39.6074V38.3711H137.361C137.455 38.4453 137.564 38.5273 137.689 38.6172C137.818 38.707 137.988 38.8008 138.199 38.8984C138.387 38.9844 138.592 39.0605 138.814 39.127C139.041 39.1934 139.275 39.2266 139.518 39.2266C139.693 39.2266 139.881 39.207 140.08 39.168C140.279 39.125 140.428 39.0723 140.525 39.0098C140.662 38.9199 140.76 38.8242 140.818 38.7227C140.881 38.6211 140.912 38.4688 140.912 38.2656C140.912 38.0039 140.84 37.8066 140.695 37.6738C140.555 37.541 140.303 37.4297 139.939 37.3398C139.799 37.3047 139.615 37.2637 139.389 37.2168C139.162 37.1699 138.953 37.1191 138.762 37.0645C138.262 36.9199 137.898 36.6973 137.672 36.3965C137.445 36.0918 137.332 35.7246 137.332 35.2949C137.332 34.7051 137.555 34.2246 138 33.8535C138.445 33.4824 139.037 33.2969 139.775 33.2969C140.139 33.2969 140.504 33.3418 140.871 33.4316C141.238 33.5215 141.547 33.6348 141.797 33.7715V34.9492H141.738C141.457 34.7266 141.143 34.5508 140.795 34.4219C140.451 34.293 140.104 34.2285 139.752 34.2285C139.389 34.2285 139.082 34.3047 138.832 34.457C138.582 34.6094 138.457 34.8398 138.457 35.1484C138.457 35.4219 138.531 35.627 138.68 35.7637C138.828 35.8965 139.066 36.0059 139.395 36.0918C139.559 36.1348 139.74 36.1777 139.939 36.2207C140.143 36.2598 140.355 36.3066 140.578 36.3613C141.062 36.4824 141.426 36.6836 141.668 36.9648C141.914 37.2461 142.037 37.6289 142.037 38.1133C142.037 38.3945 141.98 38.6621 141.867 38.916C141.758 39.166 141.596 39.3809 141.381 39.5605C141.146 39.7559 140.881 39.9043 140.584 40.0059C140.291 40.1074 139.922 40.1582 139.477 40.1582ZM104.941 54H99.8848V45.2754H101.045V52.9688H104.941V54ZM107.754 54.1289C107.152 54.1289 106.684 53.959 106.348 53.6191C106.012 53.2754 105.844 52.7344 105.844 51.9961V48.3691H105.1V47.4551H105.844V45.5742H106.945V47.4551H108.973V48.3691H106.945V51.4805C106.945 51.8125 106.951 52.0684 106.963 52.248C106.975 52.4277 107.02 52.5957 107.098 52.752C107.164 52.8887 107.271 52.9922 107.42 53.0625C107.568 53.1289 107.77 53.1621 108.023 53.1621C108.203 53.1621 108.377 53.1367 108.545 53.0859C108.713 53.0312 108.834 52.9863 108.908 52.9512H108.973V53.9414C108.766 54 108.555 54.0449 108.34 54.0762C108.129 54.1113 107.934 54.1289 107.754 54.1289ZM114.832 54H113.73V53.332C113.559 53.4766 113.41 53.5957 113.285 53.6895C113.16 53.7832 113.014 53.8691 112.846 53.9473C112.689 54.0215 112.527 54.0781 112.359 54.1172C112.191 54.1602 111.996 54.1816 111.773 54.1816C111.418 54.1816 111.088 54.1074 110.783 53.959C110.482 53.8105 110.227 53.5938 110.016 53.3086C109.801 53.0195 109.635 52.6641 109.518 52.2422C109.4 51.8164 109.342 51.3281 109.342 50.7773C109.342 50.2031 109.416 49.707 109.564 49.2891C109.713 48.8672 109.918 48.5 110.18 48.1875C110.418 47.9023 110.705 47.6797 111.041 47.5195C111.381 47.3555 111.736 47.2734 112.107 47.2734C112.436 47.2734 112.721 47.3105 112.963 47.3848C113.205 47.4551 113.461 47.5664 113.73 47.7188V44.8828H114.832V54ZM113.73 52.4062V48.6328C113.457 48.5 113.211 48.4082 112.992 48.3574C112.777 48.3066 112.543 48.2812 112.289 48.2812C111.723 48.2812 111.279 48.4941 110.959 48.9199C110.639 49.3418 110.479 49.9531 110.479 50.7539C110.479 51.5234 110.602 52.1133 110.848 52.5234C111.094 52.9297 111.488 53.1328 112.031 53.1328C112.32 53.1328 112.611 53.0684 112.904 52.9395C113.197 52.8066 113.473 52.6289 113.73 52.4062Z" fill="#090C9B"/>
<path d="M40.9362 20.8018V14.0378C49.5769 17.0462 54.4233 17.1992 63.0638 14.0378V20.8018C54.0923 35.0112 49.2832 33.4472 40.9362 20.8018Z" fill="#090C9B"/>
<path d="M38.1702 8.40131V3.32833C48.4386 -1.15268 54.3896 -1.066 65.2766 3.32833V8.40131C55.3092 15.8343 49.3765 15.8324 38.1702 8.40131Z" fill="#090C9B"/>
<path d="M78 54.6218H26V43.3485C28.6156 36.8685 32.2561 34.3448 42.0426 31.5115C42.0426 31.5115 44.1411 50.8707 52.5532 50.6761C60.8621 50.484 62.5106 31.5115 62.5106 31.5115C71.9598 34.6223 76.0571 36.8995 78 43.3485V54.6218Z" fill="#090C9B"/>
<rect x="63.0638" y="43.3486" width="9.95745" height="5.63664" fill="white"/>
<path d="M52.0001 33.7661L48.6809 37.7118L52.0001 50.1124L54.766 37.7118L52.0001 33.7661Z" fill="#001B7A"/>
<rect x="86" width="1" height="54.6218" fill="#090C9B"/>
<path d="M493.971 19.9851H491.012V22.9441H490.039V19.9851H487.08V19.0476H490.039V16.0886H491.012V19.0476H493.971V19.9851ZM501.143 20.3367H500.105V23.3367H498.98V20.3367H495.125V19.1062L499.027 14.6121H500.105V19.3992H501.143V20.3367ZM498.98 19.3992V15.989L496.039 19.3992H498.98ZM507.693 20.3367H506.656V23.3367H505.531V20.3367H501.676V19.1062L505.578 14.6121H506.656V19.3992H507.693V20.3367ZM505.531 19.3992V15.989L502.59 19.3992H505.531ZM517.859 15.9187L514.086 23.3367H512.838L516.834 15.6375H512.322V14.6121H517.859V15.9187ZM523.045 16.6453C523.045 16.2546 522.914 15.9285 522.652 15.6667C522.391 15.405 522.027 15.2742 521.562 15.2742C521.137 15.2742 520.787 15.3914 520.514 15.6257C520.244 15.8601 520.109 16.1765 520.109 16.575C520.109 16.864 520.178 17.1082 520.314 17.3074C520.455 17.5066 520.664 17.6863 520.941 17.8464C521.062 17.9128 521.246 18.0046 521.492 18.1218C521.742 18.239 521.969 18.3308 522.172 18.3972C522.512 18.1355 522.742 17.8679 522.863 17.5945C522.984 17.3171 523.045 17.0007 523.045 16.6453ZM523.209 21.0164C523.209 20.657 523.139 20.3718 522.998 20.1609C522.857 19.95 522.586 19.7351 522.184 19.5164C522.051 19.4421 521.873 19.3621 521.65 19.2761C521.432 19.1902 521.184 19.0886 520.906 18.9714C520.582 19.1863 520.334 19.4519 520.162 19.7683C519.99 20.0808 519.904 20.4382 519.904 20.8406C519.904 21.3679 520.062 21.8035 520.379 22.1472C520.699 22.491 521.1 22.6628 521.58 22.6628C522.072 22.6628 522.467 22.5164 522.764 22.2234C523.061 21.9265 523.209 21.5242 523.209 21.0164ZM521.568 23.5359C521.135 23.5359 520.74 23.4714 520.385 23.3425C520.029 23.2136 519.727 23.0281 519.477 22.7859C519.23 22.5515 519.043 22.2742 518.914 21.9539C518.789 21.6296 518.727 21.2878 518.727 20.9285C518.727 20.4558 518.852 20.0222 519.102 19.6277C519.355 19.2292 519.723 18.9128 520.203 18.6785V18.6433C519.773 18.3933 519.455 18.1199 519.248 17.823C519.041 17.5261 518.938 17.155 518.938 16.7097C518.938 16.0535 519.186 15.5066 519.682 15.0691C520.178 14.6316 520.807 14.4128 521.568 14.4128C522.361 14.4128 522.996 14.6218 523.473 15.0398C523.953 15.4539 524.193 15.9851 524.193 16.6335C524.193 17.0242 524.078 17.4109 523.848 17.7937C523.621 18.1765 523.293 18.4753 522.863 18.6902V18.7253C523.371 18.9636 523.756 19.2527 524.018 19.5925C524.279 19.9324 524.41 20.3699 524.41 20.905C524.41 21.6511 524.139 22.2761 523.596 22.78C523.057 23.2839 522.381 23.5359 521.568 23.5359ZM530.908 18.9714C530.908 20.5378 530.68 21.6882 530.223 22.4226C529.77 23.1531 529.068 23.5183 528.119 23.5183C527.158 23.5183 526.453 23.1453 526.004 22.3992C525.555 21.6531 525.33 20.5144 525.33 18.9832C525.33 17.4089 525.557 16.2585 526.01 15.532C526.467 14.8015 527.17 14.4363 528.119 14.4363C529.08 14.4363 529.785 14.8132 530.234 15.5671C530.684 16.321 530.908 17.4558 530.908 18.9714ZM529.408 21.6316C529.521 21.3425 529.602 20.9773 529.648 20.5359C529.695 20.0945 529.719 19.573 529.719 18.9714C529.719 18.3738 529.695 17.8542 529.648 17.4128C529.602 16.9714 529.52 16.6042 529.402 16.3113C529.285 16.0144 529.123 15.7898 528.916 15.6375C528.713 15.4812 528.447 15.4031 528.119 15.4031C527.795 15.4031 527.527 15.4812 527.316 15.6375C527.109 15.7898 526.945 16.0183 526.824 16.323C526.707 16.6199 526.627 16.9949 526.584 17.448C526.541 17.9011 526.52 18.4128 526.52 18.9832C526.52 19.5925 526.537 20.1023 526.572 20.5125C526.611 20.9226 526.693 21.2898 526.818 21.614C526.932 21.9148 527.092 22.1472 527.299 22.3113C527.51 22.4714 527.783 22.5515 528.119 22.5515C528.443 22.5515 528.709 22.4753 528.916 22.323C529.127 22.1667 529.291 21.9363 529.408 21.6316ZM537.418 23.3367H532.033V22.1121C532.42 21.7449 532.785 21.3933 533.129 21.0574C533.473 20.7214 533.809 20.3718 534.137 20.0085C534.801 19.2781 535.254 18.6941 535.496 18.2566C535.738 17.8152 535.859 17.3601 535.859 16.8914C535.859 16.6492 535.82 16.4363 535.742 16.2527C535.668 16.0691 535.564 15.9167 535.432 15.7957C535.295 15.6785 535.137 15.5906 534.957 15.532C534.777 15.4734 534.58 15.4441 534.365 15.4441C534.158 15.4441 533.947 15.4714 533.732 15.5261C533.521 15.5769 533.318 15.6414 533.123 15.7195C532.959 15.7859 532.801 15.866 532.648 15.9597C532.496 16.0535 532.373 16.1335 532.279 16.2H532.215V14.9578C532.457 14.8367 532.793 14.7195 533.223 14.6062C533.656 14.489 534.066 14.4304 534.453 14.4304C535.266 14.4304 535.902 14.6472 536.363 15.0808C536.824 15.5105 537.055 16.0945 537.055 16.8328C537.055 17.1726 537.014 17.4871 536.932 17.7761C536.854 18.0652 536.744 18.3328 536.604 18.5789C536.459 18.8328 536.285 19.0847 536.082 19.3347C535.879 19.5847 535.664 19.8308 535.438 20.073C535.07 20.4714 534.66 20.8855 534.207 21.3152C533.758 21.7449 533.398 22.0847 533.129 22.3347H537.418V23.3367ZM547.619 20.5593C547.619 20.9812 547.551 21.3718 547.414 21.7312C547.281 22.0906 547.094 22.4011 546.852 22.6628C546.605 22.9285 546.299 23.1375 545.932 23.2898C545.568 23.4421 545.16 23.5183 544.707 23.5183C544.289 23.5183 543.877 23.4714 543.471 23.3777C543.068 23.2878 542.719 23.1687 542.422 23.0203V21.7839H542.504C542.594 21.8503 542.723 21.9265 542.891 22.0125C543.059 22.0945 543.244 22.1726 543.447 22.2468C543.678 22.3289 543.889 22.3933 544.08 22.4402C544.271 22.4832 544.486 22.5046 544.725 22.5046C544.959 22.5046 545.188 22.4636 545.41 22.3816C545.633 22.2957 545.824 22.1589 545.984 21.9714C546.129 21.7996 546.238 21.5984 546.312 21.3679C546.391 21.1375 546.43 20.866 546.43 20.5535C546.43 20.2449 546.387 19.991 546.301 19.7917C546.219 19.5925 546.098 19.4285 545.938 19.2996C545.77 19.1511 545.562 19.0476 545.316 18.989C545.074 18.9265 544.803 18.8953 544.502 18.8953C544.186 18.8953 543.867 18.9207 543.547 18.9714C543.227 19.0183 542.971 19.0632 542.779 19.1062V14.6121H547.566V15.6375H543.91V17.9578C544.051 17.9421 544.189 17.9304 544.326 17.9226C544.463 17.9148 544.588 17.9109 544.701 17.9109C545.146 17.9109 545.523 17.948 545.832 18.0222C546.141 18.0964 546.438 18.241 546.723 18.4558C547.012 18.6746 547.232 18.948 547.385 19.2761C547.541 19.6042 547.619 20.032 547.619 20.5593ZM554.363 15.9187L550.59 23.3367H549.342L553.338 15.6375H548.826V14.6121H554.363V15.9187ZM559.672 18.198C559.672 17.6042 559.617 17.1218 559.508 16.7507C559.398 16.3757 559.248 16.0867 559.057 15.8835C558.885 15.696 558.711 15.5671 558.535 15.4968C558.359 15.4265 558.166 15.3914 557.955 15.3914C557.475 15.3914 557.092 15.5632 556.807 15.907C556.521 16.2507 556.379 16.7488 556.379 17.4011C556.379 17.7683 556.426 18.071 556.52 18.3093C556.613 18.5476 556.766 18.7527 556.977 18.9246C557.125 19.0457 557.293 19.1277 557.48 19.1707C557.668 19.2097 557.869 19.2292 558.084 19.2292C558.334 19.2292 558.604 19.1863 558.893 19.1003C559.182 19.0105 559.434 18.8933 559.648 18.7488C559.652 18.6902 559.656 18.614 559.66 18.5203C559.668 18.4226 559.672 18.3152 559.672 18.198ZM555.189 17.448C555.189 16.9988 555.262 16.5886 555.406 16.2175C555.555 15.8464 555.756 15.5261 556.01 15.2566C556.252 14.9988 556.547 14.7976 556.895 14.6531C557.246 14.5085 557.602 14.4363 557.961 14.4363C558.363 14.4363 558.727 14.5046 559.051 14.6414C559.379 14.7742 559.662 14.9675 559.9 15.2214C560.201 15.5417 560.434 15.9617 560.598 16.4812C560.766 17.0007 560.85 17.657 560.85 18.45C560.85 19.1726 560.768 19.8582 560.604 20.5066C560.443 21.1511 560.205 21.6863 559.889 22.1121C559.553 22.5652 559.148 22.9109 558.676 23.1492C558.207 23.3875 557.627 23.5066 556.936 23.5066C556.779 23.5066 556.613 23.4968 556.438 23.4773C556.262 23.4617 556.098 23.4304 555.945 23.3835V22.2644H556.004C556.102 22.3191 556.254 22.3718 556.461 22.4226C556.668 22.4734 556.879 22.4988 557.094 22.4988C557.859 22.4988 558.461 22.2468 558.898 21.7429C559.336 21.239 559.584 20.5183 559.643 19.5808C559.33 19.7917 559.031 19.946 558.746 20.0437C558.465 20.1414 558.158 20.1902 557.826 20.1902C557.502 20.1902 557.207 20.155 556.941 20.0847C556.676 20.0144 556.408 19.8777 556.139 19.6746C555.826 19.4363 555.59 19.1355 555.43 18.7722C555.27 18.405 555.189 17.9636 555.189 17.448ZM567.371 23.3367H561.986V22.1121C562.373 21.7449 562.738 21.3933 563.082 21.0574C563.426 20.7214 563.762 20.3718 564.09 20.0085C564.754 19.2781 565.207 18.6941 565.449 18.2566C565.691 17.8152 565.812 17.3601 565.812 16.8914C565.812 16.6492 565.773 16.4363 565.695 16.2527C565.621 16.0691 565.518 15.9167 565.385 15.7957C565.248 15.6785 565.09 15.5906 564.91 15.532C564.73 15.4734 564.533 15.4441 564.318 15.4441C564.111 15.4441 563.9 15.4714 563.686 15.5261C563.475 15.5769 563.271 15.6414 563.076 15.7195C562.912 15.7859 562.754 15.866 562.602 15.9597C562.449 16.0535 562.326 16.1335 562.232 16.2H562.168V14.9578C562.41 14.8367 562.746 14.7195 563.176 14.6062C563.609 14.489 564.02 14.4304 564.406 14.4304C565.219 14.4304 565.855 14.6472 566.316 15.0808C566.777 15.5105 567.008 16.0945 567.008 16.8328C567.008 17.1726 566.967 17.4871 566.885 17.7761C566.807 18.0652 566.697 18.3328 566.557 18.5789C566.412 18.8328 566.238 19.0847 566.035 19.3347C565.832 19.5847 565.617 19.8308 565.391 20.073C565.023 20.4714 564.613 20.8855 564.16 21.3152C563.711 21.7449 563.352 22.0847 563.082 22.3347H567.371V23.3367ZM573.922 23.3367H568.537V22.1121C568.924 21.7449 569.289 21.3933 569.633 21.0574C569.977 20.7214 570.312 20.3718 570.641 20.0085C571.305 19.2781 571.758 18.6941 572 18.2566C572.242 17.8152 572.363 17.3601 572.363 16.8914C572.363 16.6492 572.324 16.4363 572.246 16.2527C572.172 16.0691 572.068 15.9167 571.936 15.7957C571.799 15.6785 571.641 15.5906 571.461 15.532C571.281 15.4734 571.084 15.4441 570.869 15.4441C570.662 15.4441 570.451 15.4714 570.236 15.5261C570.025 15.5769 569.822 15.6414 569.627 15.7195C569.463 15.7859 569.305 15.866 569.152 15.9597C569 16.0535 568.877 16.1335 568.783 16.2H568.719V14.9578C568.961 14.8367 569.297 14.7195 569.727 14.6062C570.16 14.489 570.57 14.4304 570.957 14.4304C571.77 14.4304 572.406 14.6472 572.867 15.0808C573.328 15.5105 573.559 16.0945 573.559 16.8328C573.559 17.1726 573.518 17.4871 573.436 17.7761C573.357 18.0652 573.248 18.3328 573.107 18.5789C572.963 18.8328 572.789 19.0847 572.586 19.3347C572.383 19.5847 572.168 19.8308 571.941 20.073C571.574 20.4714 571.164 20.8855 570.711 21.3152C570.262 21.7449 569.902 22.0847 569.633 22.3347H573.922V23.3367ZM580.027 23.3367H575.773V22.446H577.355V16.5984H575.773V15.8015C576.371 15.8015 576.811 15.7175 577.092 15.5496C577.377 15.3777 577.537 15.0554 577.572 14.5828H578.48V22.446H580.027V23.3367ZM453.301 37.3367H452.199V36.6687C452.027 36.8132 451.879 36.9324 451.754 37.0261C451.629 37.1199 451.482 37.2058 451.314 37.2839C451.158 37.3582 450.996 37.4148 450.828 37.4539C450.66 37.4968 450.465 37.5183 450.242 37.5183C449.887 37.5183 449.557 37.4441 449.252 37.2957C448.951 37.1472 448.695 36.9304 448.484 36.6453C448.27 36.3562 448.104 36.0007 447.986 35.5789C447.869 35.1531 447.811 34.6648 447.811 34.114C447.811 33.5398 447.885 33.0437 448.033 32.6257C448.182 32.2039 448.387 31.8367 448.648 31.5242C448.887 31.239 449.174 31.0164 449.51 30.8562C449.85 30.6921 450.205 30.6101 450.576 30.6101C450.904 30.6101 451.189 30.6472 451.432 30.7214C451.674 30.7917 451.93 30.9031 452.199 31.0554V28.2195H453.301V37.3367ZM452.199 35.7429V31.9695C451.926 31.8367 451.68 31.7449 451.461 31.6941C451.246 31.6433 451.012 31.6179 450.758 31.6179C450.191 31.6179 449.748 31.8308 449.428 32.2566C449.107 32.6785 448.947 33.2898 448.947 34.0906C448.947 34.8601 449.07 35.45 449.316 35.8601C449.562 36.2664 449.957 36.4695 450.5 36.4695C450.789 36.4695 451.08 36.405 451.373 36.2761C451.666 36.1433 451.941 35.9656 452.199 35.7429ZM460.039 37.3367H458.938V33.6101C458.938 33.3093 458.922 33.03 458.891 32.7722C458.863 32.5105 458.809 32.3015 458.727 32.1453C458.637 31.9812 458.512 31.8601 458.352 31.782C458.191 31.7 457.973 31.6589 457.695 31.6589C457.422 31.6589 457.139 31.7332 456.846 31.8816C456.557 32.0261 456.273 32.2156 455.996 32.45V37.3367H454.895V30.7917H455.996V31.5183C456.324 31.2253 456.648 31.0007 456.969 30.8445C457.289 30.6882 457.627 30.6101 457.982 30.6101C458.627 30.6101 459.131 30.823 459.494 31.2488C459.857 31.6707 460.039 32.2839 460.039 33.0886V37.3367ZM463.355 37.4949C462.918 37.4949 462.508 37.4363 462.125 37.3191C461.746 37.2019 461.432 37.0769 461.182 36.9441V35.7078H461.24C461.334 35.782 461.443 35.864 461.568 35.9539C461.697 36.0437 461.867 36.1375 462.078 36.2351C462.266 36.321 462.471 36.3972 462.693 36.4636C462.92 36.53 463.154 36.5632 463.396 36.5632C463.572 36.5632 463.76 36.5437 463.959 36.5046C464.158 36.4617 464.307 36.4089 464.404 36.3464C464.541 36.2566 464.639 36.1609 464.697 36.0593C464.76 35.9578 464.791 35.8054 464.791 35.6023C464.791 35.3406 464.719 35.1433 464.574 35.0105C464.434 34.8777 464.182 34.7664 463.818 34.6765C463.678 34.6414 463.494 34.6003 463.268 34.5535C463.041 34.5066 462.832 34.4558 462.641 34.4011C462.141 34.2566 461.777 34.0339 461.551 33.7332C461.324 33.4285 461.211 33.0613 461.211 32.6316C461.211 32.0417 461.434 31.5613 461.879 31.1902C462.324 30.8191 462.916 30.6335 463.654 30.6335C464.018 30.6335 464.383 30.6785 464.75 30.7683C465.117 30.8582 465.426 30.9714 465.676 31.1082V32.2859H465.617C465.336 32.0632 465.021 31.8875 464.674 31.7585C464.33 31.6296 463.982 31.5652 463.631 31.5652C463.268 31.5652 462.961 31.6414 462.711 31.7937C462.461 31.946 462.336 32.1765 462.336 32.4851C462.336 32.7585 462.41 32.9636 462.559 33.1003C462.707 33.2332 462.945 33.3425 463.273 33.4285C463.438 33.4714 463.619 33.5144 463.818 33.5574C464.021 33.5964 464.234 33.6433 464.457 33.698C464.941 33.8191 465.305 34.0203 465.547 34.3015C465.793 34.5828 465.916 34.9656 465.916 35.45C465.916 35.7312 465.859 35.9988 465.746 36.2527C465.637 36.5027 465.475 36.7175 465.26 36.8972C465.025 37.0925 464.76 37.241 464.463 37.3425C464.17 37.4441 463.801 37.4949 463.355 37.4949ZM469.783 37.489C468.74 37.489 467.93 37.196 467.352 36.6101C466.777 36.0203 466.49 35.1843 466.49 34.1023C466.49 33.0359 466.77 32.1882 467.328 31.5593C467.887 30.9265 468.617 30.6101 469.52 30.6101C469.926 30.6101 470.285 30.6687 470.598 30.7859C470.91 30.9031 471.184 31.0867 471.418 31.3367C471.652 31.5867 471.832 31.8933 471.957 32.2566C472.082 32.616 472.145 33.0574 472.145 33.5808V34.1785H467.609C467.609 34.9402 467.801 35.5222 468.184 35.9246C468.566 36.3269 469.096 36.5281 469.771 36.5281C470.014 36.5281 470.25 36.5007 470.48 36.446C470.715 36.3914 470.926 36.321 471.113 36.2351C471.312 36.1453 471.48 36.0593 471.617 35.9773C471.754 35.8914 471.867 35.8113 471.957 35.7371H472.021V36.9382C471.893 36.989 471.732 37.0535 471.541 37.1316C471.35 37.2058 471.178 37.2644 471.025 37.3074C470.811 37.366 470.615 37.4109 470.439 37.4421C470.268 37.4734 470.049 37.489 469.783 37.489ZM471.072 33.3347C471.064 33.0378 471.029 32.782 470.967 32.5671C470.904 32.3523 470.814 32.1707 470.697 32.0222C470.568 31.8582 470.402 31.7332 470.199 31.6472C470 31.5613 469.752 31.5183 469.455 31.5183C469.162 31.5183 468.912 31.5632 468.705 31.6531C468.502 31.739 468.316 31.866 468.148 32.0339C467.984 32.2058 467.859 32.3972 467.773 32.6082C467.688 32.8152 467.633 33.0574 467.609 33.3347H471.072ZM476.727 31.9753H476.668C476.586 31.9519 476.498 31.9382 476.404 31.9343C476.314 31.9265 476.205 31.9226 476.076 31.9226C475.779 31.9226 475.484 31.9871 475.191 32.116C474.898 32.2449 474.621 32.4363 474.359 32.6902V37.3367H473.258V30.7917H474.359V31.7644C474.762 31.4089 475.111 31.1589 475.408 31.0144C475.709 30.866 476 30.7917 476.281 30.7917C476.395 30.7917 476.479 30.7957 476.533 30.8035C476.592 30.8074 476.656 30.8152 476.727 30.8269V31.9753ZM482.727 30.7917L480.26 37.3367H479.27L476.82 30.7917H478.01L479.803 35.8425L481.578 30.7917H482.727ZM484.684 37.3367H483.582V30.7917H484.684V37.3367ZM484.76 29.696H483.506V28.5535H484.76V29.696ZM488.902 37.4832C488.453 37.4832 488.041 37.4148 487.666 37.2781C487.291 37.1375 486.969 36.9265 486.699 36.6453C486.43 36.364 486.221 36.0105 486.072 35.5847C485.924 35.155 485.85 34.6511 485.85 34.073C485.85 33.4988 485.926 33.0027 486.078 32.5847C486.234 32.1667 486.441 31.8152 486.699 31.53C486.957 31.2449 487.277 31.0261 487.66 30.8738C488.047 30.7175 488.461 30.6394 488.902 30.6394C489.262 30.6394 489.607 30.6902 489.939 30.7917C490.275 30.8933 490.574 31.0105 490.836 31.1433V32.3796H490.771C490.693 32.3132 490.592 32.2371 490.467 32.1511C490.346 32.0652 490.197 31.9773 490.021 31.8875C489.869 31.8093 489.689 31.741 489.482 31.6824C489.275 31.6238 489.076 31.5945 488.885 31.5945C488.314 31.5945 487.855 31.8113 487.508 32.2449C487.164 32.6746 486.992 33.2839 486.992 34.073C486.992 34.8464 487.158 35.45 487.49 35.8835C487.826 36.3132 488.291 36.5281 488.885 36.5281C489.244 36.5281 489.586 36.4539 489.91 36.3054C490.234 36.157 490.521 35.9656 490.771 35.7312H490.836V36.9675C490.727 37.0183 490.59 37.0808 490.426 37.155C490.262 37.2253 490.113 37.2781 489.98 37.3132C489.793 37.3679 489.625 37.4089 489.477 37.4363C489.328 37.4675 489.137 37.4832 488.902 37.4832ZM494.686 37.489C493.643 37.489 492.832 37.196 492.254 36.6101C491.68 36.0203 491.393 35.1843 491.393 34.1023C491.393 33.0359 491.672 32.1882 492.23 31.5593C492.789 30.9265 493.52 30.6101 494.422 30.6101C494.828 30.6101 495.188 30.6687 495.5 30.7859C495.812 30.9031 496.086 31.0867 496.32 31.3367C496.555 31.5867 496.734 31.8933 496.859 32.2566C496.984 32.616 497.047 33.0574 497.047 33.5808V34.1785H492.512C492.512 34.9402 492.703 35.5222 493.086 35.9246C493.469 36.3269 493.998 36.5281 494.674 36.5281C494.916 36.5281 495.152 36.5007 495.383 36.446C495.617 36.3914 495.828 36.321 496.016 36.2351C496.215 36.1453 496.383 36.0593 496.52 35.9773C496.656 35.8914 496.77 35.8113 496.859 35.7371H496.924V36.9382C496.795 36.989 496.635 37.0535 496.443 37.1316C496.252 37.2058 496.08 37.2644 495.928 37.3074C495.713 37.366 495.518 37.4109 495.342 37.4421C495.17 37.4734 494.951 37.489 494.686 37.489ZM495.975 33.3347C495.967 33.0378 495.932 32.782 495.869 32.5671C495.807 32.3523 495.717 32.1707 495.6 32.0222C495.471 31.8582 495.305 31.7332 495.102 31.6472C494.902 31.5613 494.654 31.5183 494.357 31.5183C494.064 31.5183 493.814 31.5632 493.607 31.6531C493.404 31.739 493.219 31.866 493.051 32.0339C492.887 32.2058 492.762 32.3972 492.676 32.6082C492.59 32.8152 492.535 33.0574 492.512 33.3347H495.975ZM499.93 37.4949C499.492 37.4949 499.082 37.4363 498.699 37.3191C498.32 37.2019 498.006 37.0769 497.756 36.9441V35.7078H497.814C497.908 35.782 498.018 35.864 498.143 35.9539C498.271 36.0437 498.441 36.1375 498.652 36.2351C498.84 36.321 499.045 36.3972 499.268 36.4636C499.494 36.53 499.729 36.5632 499.971 36.5632C500.146 36.5632 500.334 36.5437 500.533 36.5046C500.732 36.4617 500.881 36.4089 500.979 36.3464C501.115 36.2566 501.213 36.1609 501.271 36.0593C501.334 35.9578 501.365 35.8054 501.365 35.6023C501.365 35.3406 501.293 35.1433 501.148 35.0105C501.008 34.8777 500.756 34.7664 500.393 34.6765C500.252 34.6414 500.068 34.6003 499.842 34.5535C499.615 34.5066 499.406 34.4558 499.215 34.4011C498.715 34.2566 498.352 34.0339 498.125 33.7332C497.898 33.4285 497.785 33.0613 497.785 32.6316C497.785 32.0417 498.008 31.5613 498.453 31.1902C498.898 30.8191 499.49 30.6335 500.229 30.6335C500.592 30.6335 500.957 30.6785 501.324 30.7683C501.691 30.8582 502 30.9714 502.25 31.1082V32.2859H502.191C501.91 32.0632 501.596 31.8875 501.248 31.7585C500.904 31.6296 500.557 31.5652 500.205 31.5652C499.842 31.5652 499.535 31.6414 499.285 31.7937C499.035 31.946 498.91 32.1765 498.91 32.4851C498.91 32.7585 498.984 32.9636 499.133 33.1003C499.281 33.2332 499.52 33.3425 499.848 33.4285C500.012 33.4714 500.193 33.5144 500.393 33.5574C500.596 33.5964 500.809 33.6433 501.031 33.698C501.516 33.8191 501.879 34.0203 502.121 34.3015C502.367 34.5828 502.49 34.9656 502.49 35.45C502.49 35.7312 502.434 35.9988 502.32 36.2527C502.211 36.5027 502.049 36.7175 501.834 36.8972C501.6 37.0925 501.334 37.241 501.037 37.3425C500.744 37.4441 500.375 37.4949 499.93 37.4949ZM508.297 37.3367H504.043V36.446H505.625V30.5984H504.043V29.8015C504.641 29.8015 505.08 29.7175 505.361 29.5496C505.646 29.3777 505.807 29.0554 505.842 28.5828H506.75V36.446H508.297V37.3367ZM514.145 32.198C514.145 31.6042 514.09 31.1218 513.98 30.7507C513.871 30.3757 513.721 30.0867 513.529 29.8835C513.357 29.696 513.184 29.5671 513.008 29.4968C512.832 29.4265 512.639 29.3914 512.428 29.3914C511.947 29.3914 511.564 29.5632 511.279 29.907C510.994 30.2507 510.852 30.7488 510.852 31.4011C510.852 31.7683 510.898 32.071 510.992 32.3093C511.086 32.5476 511.238 32.7527 511.449 32.9246C511.598 33.0457 511.766 33.1277 511.953 33.1707C512.141 33.2097 512.342 33.2292 512.557 33.2292C512.807 33.2292 513.076 33.1863 513.365 33.1003C513.654 33.0105 513.906 32.8933 514.121 32.7488C514.125 32.6902 514.129 32.614 514.133 32.5203C514.141 32.4226 514.145 32.3152 514.145 32.198ZM509.662 31.448C509.662 30.9988 509.734 30.5886 509.879 30.2175C510.027 29.8464 510.229 29.5261 510.482 29.2566C510.725 28.9988 511.02 28.7976 511.367 28.6531C511.719 28.5085 512.074 28.4363 512.434 28.4363C512.836 28.4363 513.199 28.5046 513.523 28.6414C513.852 28.7742 514.135 28.9675 514.373 29.2214C514.674 29.5417 514.906 29.9617 515.07 30.4812C515.238 31.0007 515.322 31.657 515.322 32.45C515.322 33.1726 515.24 33.8582 515.076 34.5066C514.916 35.1511 514.678 35.6863 514.361 36.1121C514.025 36.5652 513.621 36.9109 513.148 37.1492C512.68 37.3875 512.1 37.5066 511.408 37.5066C511.252 37.5066 511.086 37.4968 510.91 37.4773C510.734 37.4617 510.57 37.4304 510.418 37.3835V36.2644H510.477C510.574 36.3191 510.727 36.3718 510.934 36.4226C511.141 36.4734 511.352 36.4988 511.566 36.4988C512.332 36.4988 512.934 36.2468 513.371 35.7429C513.809 35.239 514.057 34.5183 514.115 33.5808C513.803 33.7917 513.504 33.946 513.219 34.0437C512.938 34.1414 512.631 34.1902 512.299 34.1902C511.975 34.1902 511.68 34.155 511.414 34.0847C511.148 34.0144 510.881 33.8777 510.611 33.6746C510.299 33.4363 510.062 33.1355 509.902 32.7722C509.742 32.405 509.662 31.9636 509.662 31.448ZM526.01 33.4519C526.01 33.9949 525.936 34.5203 525.787 35.0281C525.639 35.532 525.426 35.9949 525.148 36.4167H522.682L522.535 35.7371C522.273 35.9597 522.031 36.1375 521.809 36.2703C521.59 36.3992 521.291 36.4636 520.912 36.4636C520.311 36.4636 519.818 36.2234 519.436 35.7429C519.053 35.2585 518.861 34.5574 518.861 33.6394C518.861 32.7214 519.096 32.0066 519.564 31.4949C520.037 30.9832 520.576 30.7273 521.182 30.7273C521.463 30.7273 521.705 30.7625 521.908 30.8328C522.111 30.9031 522.316 30.9968 522.523 31.114V30.8328H523.455V35.7664H524.785C524.934 35.489 525.039 35.1296 525.102 34.6882C525.168 34.2468 525.201 33.8464 525.201 33.4871C525.201 32.2097 524.875 31.1824 524.223 30.405C523.574 29.6238 522.641 29.2332 521.422 29.2332C520.266 29.2332 519.311 29.655 518.557 30.4988C517.807 31.3386 517.432 32.3582 517.432 33.5574C517.432 34.8464 517.797 35.8914 518.527 36.6921C519.258 37.489 520.213 37.8875 521.393 37.8875C521.709 37.8875 522.041 37.866 522.389 37.823C522.74 37.78 523.072 37.7117 523.385 37.6179V38.45C523.057 38.5281 522.723 38.5828 522.383 38.614C522.047 38.6453 521.715 38.6609 521.387 38.6609C520.004 38.6609 518.859 38.1863 517.953 37.2371C517.047 36.2878 516.594 35.0574 516.594 33.5457C516.594 32.1121 517.061 30.9031 517.994 29.9187C518.932 28.9343 520.072 28.4421 521.416 28.4421C522.854 28.4421 523.979 28.907 524.791 29.8367C525.604 30.7625 526.01 31.9675 526.01 33.4519ZM522.512 34.946V31.9109C522.293 31.7976 522.092 31.7175 521.908 31.6707C521.725 31.6199 521.533 31.5945 521.334 31.5945C520.893 31.5945 520.537 31.7605 520.268 32.0925C519.998 32.4207 519.863 32.9304 519.863 33.6218C519.863 34.2468 519.965 34.7253 520.168 35.0574C520.371 35.3894 520.695 35.5554 521.141 35.5554C521.379 35.5554 521.613 35.4988 521.844 35.3855C522.078 35.2722 522.301 35.1257 522.512 34.946ZM531.465 35.5613V31.9695C531.191 31.8367 530.938 31.7429 530.703 31.6882C530.473 31.6296 530.242 31.6003 530.012 31.6003C529.453 31.6003 529.014 31.8054 528.693 32.2156C528.373 32.6257 528.213 33.2136 528.213 33.9792C528.213 34.7058 528.334 35.2585 528.576 35.6375C528.822 36.0164 529.219 36.2058 529.766 36.2058C530.051 36.2058 530.344 36.1492 530.645 36.0359C530.949 35.9226 531.223 35.7644 531.465 35.5613ZM527.762 38.3855C527.836 38.4167 527.945 38.4578 528.09 38.5085C528.234 38.5632 528.398 38.614 528.582 38.6609C528.785 38.7117 528.973 38.7527 529.145 38.7839C529.316 38.8152 529.504 38.8308 529.707 38.8308C530.047 38.8308 530.334 38.7859 530.568 38.696C530.807 38.6062 530.992 38.4812 531.125 38.321C531.25 38.1609 531.338 37.9753 531.389 37.7644C531.439 37.5535 531.465 37.3132 531.465 37.0437V36.4695C531.168 36.7273 530.877 36.9187 530.592 37.0437C530.307 37.1648 529.949 37.2253 529.52 37.2253C528.773 37.2253 528.18 36.948 527.738 36.3933C527.297 35.8386 527.076 35.0417 527.076 34.0027C527.076 33.4597 527.152 32.9792 527.305 32.5613C527.457 32.1394 527.662 31.782 527.92 31.489C528.166 31.2078 528.457 30.991 528.793 30.8386C529.129 30.6863 529.477 30.6101 529.836 30.6101C530.176 30.6101 530.469 30.6511 530.715 30.7332C530.965 30.8113 531.215 30.9246 531.465 31.073L531.529 30.7917H532.566V36.5925C532.566 37.7019 532.324 38.5164 531.84 39.0359C531.355 39.5554 530.615 39.8152 529.619 39.8152C529.299 39.8152 528.971 39.7898 528.635 39.739C528.303 39.6882 527.992 39.6199 527.703 39.5339V38.3855H527.762ZM541.59 37.3367V33.5515C541.59 33.2507 541.578 32.9734 541.555 32.7195C541.531 32.4617 541.482 32.2605 541.408 32.116C541.33 31.9597 541.219 31.8445 541.074 31.7703C540.93 31.696 540.734 31.6589 540.488 31.6589C540.262 31.6589 540.018 31.7292 539.756 31.8699C539.498 32.0066 539.23 32.2058 538.953 32.4675C538.957 32.5339 538.961 32.614 538.965 32.7078C538.973 32.7976 538.977 32.905 538.977 33.03V37.3367H537.875V33.5515C537.875 33.2507 537.863 32.9734 537.84 32.7195C537.816 32.4617 537.768 32.2605 537.693 32.116C537.615 31.9597 537.504 31.8445 537.359 31.7703C537.215 31.696 537.02 31.6589 536.773 31.6589C536.535 31.6589 536.285 31.7332 536.023 31.8816C535.762 32.03 535.508 32.2195 535.262 32.45V37.3367H534.16V30.7917H535.262V31.5183C535.551 31.2292 535.836 31.0066 536.117 30.8503C536.402 30.6902 536.715 30.6101 537.055 30.6101C537.441 30.6101 537.783 30.698 538.08 30.8738C538.381 31.0496 538.609 31.3386 538.766 31.741C539.098 31.3699 539.422 31.0886 539.738 30.8972C540.055 30.7058 540.398 30.6101 540.77 30.6101C541.051 30.6101 541.307 30.655 541.537 30.7449C541.768 30.8308 541.969 30.9714 542.141 31.1667C542.316 31.366 542.451 31.614 542.545 31.9109C542.643 32.2078 542.691 32.5808 542.691 33.03V37.3367H541.59ZM547.895 35.7253V33.9089C547.633 33.9324 547.301 33.9656 546.898 34.0085C546.5 34.0476 546.178 34.1042 545.932 34.1785C545.639 34.2683 545.396 34.407 545.205 34.5945C545.014 34.7781 544.918 35.0359 544.918 35.3679C544.918 35.7429 545.023 36.0261 545.234 36.2175C545.445 36.4089 545.754 36.5046 546.16 36.5046C546.508 36.5046 546.822 36.4304 547.104 36.282C547.385 36.1296 547.648 35.9441 547.895 35.7253ZM547.895 36.6394C547.805 36.7058 547.684 36.7996 547.531 36.9207C547.383 37.0378 547.238 37.1316 547.098 37.2019C546.902 37.3035 546.713 37.3816 546.529 37.4363C546.35 37.491 546.096 37.5183 545.768 37.5183C545.498 37.5183 545.242 37.4675 545 37.366C544.758 37.2644 544.545 37.1218 544.361 36.9382C544.186 36.7585 544.045 36.5378 543.939 36.2761C543.834 36.0105 543.781 35.7312 543.781 35.4382C543.781 34.9851 543.877 34.6003 544.068 34.2839C544.26 33.9636 544.562 33.7097 544.977 33.5222C545.344 33.3542 545.777 33.239 546.277 33.1765C546.777 33.1101 547.316 33.0613 547.895 33.03V32.8191C547.895 32.5613 547.855 32.3542 547.777 32.198C547.699 32.0378 547.59 31.9148 547.449 31.8289C547.309 31.739 547.137 31.6804 546.934 31.6531C546.73 31.6218 546.521 31.6062 546.307 31.6062C546.053 31.6062 545.754 31.6453 545.41 31.7234C545.066 31.7976 544.723 31.907 544.379 32.0515H544.314V30.9324C544.518 30.8738 544.809 30.8093 545.188 30.739C545.566 30.6687 545.941 30.6335 546.312 30.6335C546.762 30.6335 547.141 30.6687 547.449 30.739C547.758 30.8093 548.035 30.9363 548.281 31.1199C548.52 31.2996 548.697 31.532 548.814 31.8171C548.932 32.1023 548.99 32.45 548.99 32.8601V37.3367H547.895V36.6394ZM551.668 37.3367H550.566V30.7917H551.668V37.3367ZM551.744 29.696H550.49V28.5535H551.744V29.696ZM554.41 37.3367H553.309V28.2195H554.41V37.3367ZM557.744 37.3367H556.344V35.6667H557.744V37.3367ZM562.262 37.4832C561.812 37.4832 561.4 37.4148 561.025 37.2781C560.65 37.1375 560.328 36.9265 560.059 36.6453C559.789 36.364 559.58 36.0105 559.432 35.5847C559.283 35.155 559.209 34.6511 559.209 34.073C559.209 33.4988 559.285 33.0027 559.438 32.5847C559.594 32.1667 559.801 31.8152 560.059 31.53C560.316 31.2449 560.637 31.0261 561.02 30.8738C561.406 30.7175 561.82 30.6394 562.262 30.6394C562.621 30.6394 562.967 30.6902 563.299 30.7917C563.635 30.8933 563.934 31.0105 564.195 31.1433V32.3796H564.131C564.053 32.3132 563.951 32.2371 563.826 32.1511C563.705 32.0652 563.557 31.9773 563.381 31.8875C563.229 31.8093 563.049 31.741 562.842 31.6824C562.635 31.6238 562.436 31.5945 562.244 31.5945C561.674 31.5945 561.215 31.8113 560.867 32.2449C560.523 32.6746 560.352 33.2839 560.352 34.073C560.352 34.8464 560.518 35.45 560.85 35.8835C561.186 36.3132 561.65 36.5281 562.244 36.5281C562.604 36.5281 562.945 36.4539 563.27 36.3054C563.594 36.157 563.881 35.9656 564.131 35.7312H564.195V36.9675C564.086 37.0183 563.949 37.0808 563.785 37.155C563.621 37.2253 563.473 37.2781 563.34 37.3132C563.152 37.3679 562.984 37.4089 562.836 37.4363C562.688 37.4675 562.496 37.4832 562.262 37.4832ZM570.588 34.0671C570.588 35.1687 570.322 36.0203 569.791 36.6218C569.26 37.2195 568.553 37.5183 567.67 37.5183C566.76 37.5183 566.043 37.2097 565.52 36.5925C565 35.9714 564.74 35.1296 564.74 34.0671C564.74 32.9734 565.008 32.1238 565.543 31.5183C566.082 30.9128 566.791 30.6101 567.67 30.6101C568.553 30.6101 569.26 30.9128 569.791 31.5183C570.322 32.1199 570.588 32.9695 570.588 34.0671ZM569.451 34.0671C569.451 33.2195 569.297 32.5906 568.988 32.1804C568.68 31.7664 568.24 31.5593 567.67 31.5593C567.096 31.5593 566.652 31.7664 566.34 32.1804C566.031 32.5906 565.877 33.2195 565.877 34.0671C565.877 34.8875 566.031 35.5105 566.34 35.9363C566.652 36.3582 567.096 36.5691 567.67 36.5691C568.236 36.5691 568.674 36.3621 568.982 35.948C569.295 35.53 569.451 34.9031 569.451 34.0671ZM579.148 37.3367V33.5515C579.148 33.2507 579.137 32.9734 579.113 32.7195C579.09 32.4617 579.041 32.2605 578.967 32.116C578.889 31.9597 578.777 31.8445 578.633 31.7703C578.488 31.696 578.293 31.6589 578.047 31.6589C577.82 31.6589 577.576 31.7292 577.314 31.8699C577.057 32.0066 576.789 32.2058 576.512 32.4675C576.516 32.5339 576.52 32.614 576.523 32.7078C576.531 32.7976 576.535 32.905 576.535 33.03V37.3367H575.434V33.5515C575.434 33.2507 575.422 32.9734 575.398 32.7195C575.375 32.4617 575.326 32.2605 575.252 32.116C575.174 31.9597 575.062 31.8445 574.918 31.7703C574.773 31.696 574.578 31.6589 574.332 31.6589C574.094 31.6589 573.844 31.7332 573.582 31.8816C573.32 32.03 573.066 32.2195 572.82 32.45V37.3367H571.719V30.7917H572.82V31.5183C573.109 31.2292 573.395 31.0066 573.676 30.8503C573.961 30.6902 574.273 30.6101 574.613 30.6101C575 30.6101 575.342 30.698 575.639 30.8738C575.939 31.0496 576.168 31.3386 576.324 31.741C576.656 31.3699 576.98 31.0886 577.297 30.8972C577.613 30.7058 577.957 30.6101 578.328 30.6101C578.609 30.6101 578.865 30.655 579.096 30.7449C579.326 30.8308 579.527 30.9714 579.699 31.1667C579.875 31.366 580.01 31.614 580.104 31.9109C580.201 32.2078 580.25 32.5808 580.25 33.03V37.3367H579.148ZM332.047 43.9187L328.273 51.3367H327.025L331.021 43.6375H326.51V42.6121H332.047V43.9187ZM332.422 51.3367L335.363 42.6121H336.793L339.734 51.3367H338.51L337.719 48.8992H334.385L333.594 51.3367H332.422ZM337.396 47.9089L336.049 43.7957L334.707 47.9089H337.396ZM342.605 49.6667L340.965 53.5046H340.109L341.141 49.6667H342.605ZM354.113 43.614C354.445 43.9968 354.703 44.4714 354.887 45.0378C355.07 45.6042 355.162 46.2507 355.162 46.9773C355.162 47.6843 355.072 48.323 354.893 48.8933C354.713 49.4636 354.453 49.9421 354.113 50.3289C353.758 50.7351 353.342 51.0359 352.865 51.2312C352.393 51.4226 351.871 51.5183 351.301 51.5183C350.711 51.5183 350.18 51.4187 349.707 51.2195C349.234 51.0203 348.828 50.7234 348.488 50.3289C348.152 49.9421 347.895 49.4656 347.715 48.8992C347.535 48.3328 347.445 47.6921 347.445 46.9773C347.445 46.2429 347.535 45.5984 347.715 45.0437C347.898 44.489 348.158 44.0125 348.494 43.614C348.83 43.2273 349.234 42.9343 349.707 42.7351C350.184 42.532 350.715 42.4304 351.301 42.4304C351.895 42.4304 352.43 42.5339 352.906 42.741C353.383 42.948 353.785 43.239 354.113 43.614ZM353.955 46.9773C353.955 46.3992 353.893 45.8875 353.768 45.4421C353.643 44.9968 353.467 44.6277 353.24 44.3347C353.01 44.0339 352.73 43.8093 352.402 43.6609C352.078 43.5085 351.713 43.4324 351.307 43.4324C350.885 43.4324 350.516 43.5066 350.199 43.655C349.887 43.7996 349.609 44.0261 349.367 44.3347C349.137 44.6316 348.959 45.0046 348.834 45.4539C348.713 45.9031 348.652 46.4109 348.652 46.9773C348.652 48.1218 348.893 48.9988 349.373 49.6082C349.854 50.2136 350.498 50.5164 351.307 50.5164C352.115 50.5164 352.758 50.2136 353.234 49.6082C353.715 48.9988 353.955 48.1218 353.955 46.9773ZM358.332 51.4656C357.73 51.4656 357.262 51.2957 356.926 50.9558C356.59 50.6121 356.422 50.071 356.422 49.3328V45.7058H355.678V44.7917H356.422V42.9109H357.523V44.7917H359.551V45.7058H357.523V48.8171C357.523 49.1492 357.529 49.405 357.541 49.5847C357.553 49.7644 357.598 49.9324 357.676 50.0886C357.742 50.2253 357.85 50.3289 357.998 50.3992C358.146 50.4656 358.348 50.4988 358.602 50.4988C358.781 50.4988 358.955 50.4734 359.123 50.4226C359.291 50.3679 359.412 50.323 359.486 50.2878H359.551V51.2781C359.344 51.3367 359.133 51.3816 358.918 51.4128C358.707 51.448 358.512 51.4656 358.332 51.4656ZM361.496 51.3367H360.395V42.2195H361.496V51.3367ZM365.955 51.489C364.912 51.489 364.102 51.196 363.523 50.6101C362.949 50.0203 362.662 49.1843 362.662 48.1023C362.662 47.0359 362.941 46.1882 363.5 45.5593C364.059 44.9265 364.789 44.6101 365.691 44.6101C366.098 44.6101 366.457 44.6687 366.77 44.7859C367.082 44.9031 367.355 45.0867 367.59 45.3367C367.824 45.5867 368.004 45.8933 368.129 46.2566C368.254 46.616 368.316 47.0574 368.316 47.5808V48.1785H363.781C363.781 48.9402 363.973 49.5222 364.355 49.9246C364.738 50.3269 365.268 50.5281 365.943 50.5281C366.186 50.5281 366.422 50.5007 366.652 50.446C366.887 50.3914 367.098 50.321 367.285 50.2351C367.484 50.1453 367.652 50.0593 367.789 49.9773C367.926 49.8914 368.039 49.8113 368.129 49.7371H368.193V50.9382C368.064 50.989 367.904 51.0535 367.713 51.1316C367.521 51.2058 367.35 51.2644 367.197 51.3074C366.982 51.366 366.787 51.4109 366.611 51.4421C366.439 51.4734 366.221 51.489 365.955 51.489ZM367.244 47.3347C367.236 47.0378 367.201 46.782 367.139 46.5671C367.076 46.3523 366.986 46.1707 366.869 46.0222C366.74 45.8582 366.574 45.7332 366.371 45.6472C366.172 45.5613 365.924 45.5183 365.627 45.5183C365.334 45.5183 365.084 45.5632 364.877 45.6531C364.674 45.739 364.488 45.866 364.32 46.0339C364.156 46.2058 364.031 46.3972 363.945 46.6082C363.859 46.8152 363.805 47.0574 363.781 47.3347H367.244ZM374.574 44.7917L371.053 53.7507H369.875L371.047 51.0203L368.668 44.7917H369.857L371.645 49.6375L373.426 44.7917H374.574ZM386 51.3367H384.494L381.729 47.8679H380.404V51.3367H379.244V42.6121H381.494C381.994 42.6121 382.412 42.6394 382.748 42.6941C383.088 42.7488 383.41 42.8757 383.715 43.075C384.02 43.2703 384.26 43.5222 384.436 43.8308C384.615 44.1394 384.705 44.5222 384.705 44.9792C384.705 45.6199 384.543 46.155 384.219 46.5847C383.895 47.0144 383.453 47.3328 382.895 47.5398L386 51.3367ZM383.492 45.0671C383.492 44.8132 383.447 44.5886 383.357 44.3933C383.268 44.1941 383.129 44.032 382.941 43.907C382.777 43.7976 382.586 43.7214 382.367 43.6785C382.148 43.6316 381.877 43.6082 381.553 43.6082H380.404V46.9011H381.424C381.756 46.9011 382.055 46.8718 382.32 46.8132C382.586 46.7546 382.812 46.6335 383 46.45C383.168 46.2859 383.291 46.0906 383.369 45.864C383.451 45.6375 383.492 45.3718 383.492 45.0671ZM391.994 48.0671C391.994 49.1687 391.729 50.0203 391.197 50.6218C390.666 51.2195 389.959 51.5183 389.076 51.5183C388.166 51.5183 387.449 51.2097 386.926 50.5925C386.406 49.9714 386.146 49.1296 386.146 48.0671C386.146 46.9734 386.414 46.1238 386.949 45.5183C387.488 44.9128 388.197 44.6101 389.076 44.6101C389.959 44.6101 390.666 44.9128 391.197 45.5183C391.729 46.1199 391.994 46.9695 391.994 48.0671ZM390.857 48.0671C390.857 47.2195 390.703 46.5906 390.395 46.1804C390.086 45.7664 389.646 45.5593 389.076 45.5593C388.502 45.5593 388.059 45.7664 387.746 46.1804C387.438 46.5906 387.283 47.2195 387.283 48.0671C387.283 48.8875 387.438 49.5105 387.746 49.9363C388.059 50.3582 388.502 50.5691 389.076 50.5691C389.643 50.5691 390.08 50.3621 390.389 49.948C390.701 49.53 390.857 48.9031 390.857 48.0671ZM396.781 49.7253V47.9089C396.52 47.9324 396.188 47.9656 395.785 48.0085C395.387 48.0476 395.064 48.1042 394.818 48.1785C394.525 48.2683 394.283 48.407 394.092 48.5945C393.9 48.7781 393.805 49.0359 393.805 49.3679C393.805 49.7429 393.91 50.0261 394.121 50.2175C394.332 50.4089 394.641 50.5046 395.047 50.5046C395.395 50.5046 395.709 50.4304 395.99 50.282C396.271 50.1296 396.535 49.9441 396.781 49.7253ZM396.781 50.6394C396.691 50.7058 396.57 50.7996 396.418 50.9207C396.27 51.0378 396.125 51.1316 395.984 51.2019C395.789 51.3035 395.6 51.3816 395.416 51.4363C395.236 51.491 394.982 51.5183 394.654 51.5183C394.385 51.5183 394.129 51.4675 393.887 51.366C393.645 51.2644 393.432 51.1218 393.248 50.9382C393.072 50.7585 392.932 50.5378 392.826 50.2761C392.721 50.0105 392.668 49.7312 392.668 49.4382C392.668 48.9851 392.764 48.6003 392.955 48.2839C393.146 47.9636 393.449 47.7097 393.863 47.5222C394.23 47.3542 394.664 47.239 395.164 47.1765C395.664 47.1101 396.203 47.0613 396.781 47.03V46.8191C396.781 46.5613 396.742 46.3542 396.664 46.198C396.586 46.0378 396.477 45.9148 396.336 45.8289C396.195 45.739 396.023 45.6804 395.82 45.6531C395.617 45.6218 395.408 45.6062 395.193 45.6062C394.939 45.6062 394.641 45.6453 394.297 45.7234C393.953 45.7976 393.609 45.907 393.266 46.0515H393.201V44.9324C393.404 44.8738 393.695 44.8093 394.074 44.739C394.453 44.6687 394.828 44.6335 395.199 44.6335C395.648 44.6335 396.027 44.6687 396.336 44.739C396.645 44.8093 396.922 44.9363 397.168 45.1199C397.406 45.2996 397.584 45.532 397.701 45.8171C397.818 46.1023 397.877 46.45 397.877 46.8601V51.3367H396.781V50.6394ZM404.469 51.3367H403.367V50.6687C403.195 50.8132 403.047 50.9324 402.922 51.0261C402.797 51.1199 402.65 51.2058 402.482 51.2839C402.326 51.3582 402.164 51.4148 401.996 51.4539C401.828 51.4968 401.633 51.5183 401.41 51.5183C401.055 51.5183 400.725 51.4441 400.42 51.2957C400.119 51.1472 399.863 50.9304 399.652 50.6453C399.438 50.3562 399.271 50.0007 399.154 49.5789C399.037 49.1531 398.979 48.6648 398.979 48.114C398.979 47.5398 399.053 47.0437 399.201 46.6257C399.35 46.2039 399.555 45.8367 399.816 45.5242C400.055 45.239 400.342 45.0164 400.678 44.8562C401.018 44.6921 401.373 44.6101 401.744 44.6101C402.072 44.6101 402.357 44.6472 402.6 44.7214C402.842 44.7917 403.098 44.9031 403.367 45.0554V42.2195H404.469V51.3367ZM403.367 49.7429V45.9695C403.094 45.8367 402.848 45.7449 402.629 45.6941C402.414 45.6433 402.18 45.6179 401.926 45.6179C401.359 45.6179 400.916 45.8308 400.596 46.2566C400.275 46.6785 400.115 47.2898 400.115 48.0906C400.115 48.8601 400.238 49.45 400.484 49.8601C400.73 50.2664 401.125 50.4695 401.668 50.4695C401.957 50.4695 402.248 50.405 402.541 50.2761C402.834 50.1433 403.109 49.9656 403.367 49.7429ZM408.195 49.6667L406.555 53.5046H405.699L406.73 49.6667H408.195ZM423.318 42.6121L421.127 51.3367H419.82L418.045 44.0945L416.311 51.3367H415.033L412.801 42.6121H413.99L415.748 49.866L417.494 42.6121H418.672L420.436 49.9363L422.182 42.6121H423.318ZM427.115 51.489C426.072 51.489 425.262 51.196 424.684 50.6101C424.109 50.0203 423.822 49.1843 423.822 48.1023C423.822 47.0359 424.102 46.1882 424.66 45.5593C425.219 44.9265 425.949 44.6101 426.852 44.6101C427.258 44.6101 427.617 44.6687 427.93 44.7859C428.242 44.9031 428.516 45.0867 428.75 45.3367C428.984 45.5867 429.164 45.8933 429.289 46.2566C429.414 46.616 429.477 47.0574 429.477 47.5808V48.1785H424.941C424.941 48.9402 425.133 49.5222 425.516 49.9246C425.898 50.3269 426.428 50.5281 427.104 50.5281C427.346 50.5281 427.582 50.5007 427.812 50.446C428.047 50.3914 428.258 50.321 428.445 50.2351C428.645 50.1453 428.812 50.0593 428.949 49.9773C429.086 49.8914 429.199 49.8113 429.289 49.7371H429.354V50.9382C429.225 50.989 429.064 51.0535 428.873 51.1316C428.682 51.2058 428.51 51.2644 428.357 51.3074C428.143 51.366 427.947 51.4109 427.771 51.4421C427.6 51.4734 427.381 51.489 427.115 51.489ZM428.404 47.3347C428.396 47.0378 428.361 46.782 428.299 46.5671C428.236 46.3523 428.146 46.1707 428.029 46.0222C427.9 45.8582 427.734 45.7332 427.531 45.6472C427.332 45.5613 427.084 45.5183 426.787 45.5183C426.494 45.5183 426.244 45.5632 426.037 45.6531C425.834 45.739 425.648 45.866 425.48 46.0339C425.316 46.2058 425.191 46.3972 425.105 46.6082C425.02 46.8152 424.965 47.0574 424.941 47.3347H428.404ZM432.359 51.4949C431.922 51.4949 431.512 51.4363 431.129 51.3191C430.75 51.2019 430.436 51.0769 430.186 50.9441V49.7078H430.244C430.338 49.782 430.447 49.864 430.572 49.9539C430.701 50.0437 430.871 50.1375 431.082 50.2351C431.27 50.321 431.475 50.3972 431.697 50.4636C431.924 50.53 432.158 50.5632 432.4 50.5632C432.576 50.5632 432.764 50.5437 432.963 50.5046C433.162 50.4617 433.311 50.4089 433.408 50.3464C433.545 50.2566 433.643 50.1609 433.701 50.0593C433.764 49.9578 433.795 49.8054 433.795 49.6023C433.795 49.3406 433.723 49.1433 433.578 49.0105C433.438 48.8777 433.186 48.7664 432.822 48.6765C432.682 48.6414 432.498 48.6003 432.271 48.5535C432.045 48.5066 431.836 48.4558 431.645 48.4011C431.145 48.2566 430.781 48.0339 430.555 47.7332C430.328 47.4285 430.215 47.0613 430.215 46.6316C430.215 46.0417 430.438 45.5613 430.883 45.1902C431.328 44.8191 431.92 44.6335 432.658 44.6335C433.021 44.6335 433.387 44.6785 433.754 44.7683C434.121 44.8582 434.43 44.9714 434.68 45.1082V46.2859H434.621C434.34 46.0632 434.025 45.8875 433.678 45.7585C433.334 45.6296 432.986 45.5652 432.635 45.5652C432.271 45.5652 431.965 45.6414 431.715 45.7937C431.465 45.946 431.34 46.1765 431.34 46.4851C431.34 46.7585 431.414 46.9636 431.562 47.1003C431.711 47.2332 431.949 47.3425 432.277 47.4285C432.441 47.4714 432.623 47.5144 432.822 47.5574C433.025 47.5964 433.238 47.6433 433.461 47.698C433.945 47.8191 434.309 48.0203 434.551 48.3015C434.797 48.5828 434.92 48.9656 434.92 49.45C434.92 49.7312 434.863 49.9988 434.75 50.2527C434.641 50.5027 434.479 50.7175 434.264 50.8972C434.029 51.0925 433.764 51.241 433.467 51.3425C433.174 51.4441 432.805 51.4949 432.359 51.4949ZM437.926 51.4656C437.324 51.4656 436.855 51.2957 436.52 50.9558C436.184 50.6121 436.016 50.071 436.016 49.3328V45.7058H435.271V44.7917H436.016V42.9109H437.117V44.7917H439.145V45.7058H437.117V48.8171C437.117 49.1492 437.123 49.405 437.135 49.5847C437.146 49.7644 437.191 49.9324 437.27 50.0886C437.336 50.2253 437.443 50.3289 437.592 50.3992C437.74 50.4656 437.941 50.4988 438.195 50.4988C438.375 50.4988 438.549 50.4734 438.717 50.4226C438.885 50.3679 439.006 50.323 439.08 50.2878H439.145V51.2781C438.938 51.3367 438.727 51.3816 438.512 51.4128C438.301 51.448 438.105 51.4656 437.926 51.4656ZM449.721 48.6589C449.721 49.0925 449.639 49.4753 449.475 49.8074C449.311 50.1394 449.09 50.4128 448.812 50.6277C448.484 50.8855 448.133 51.0691 447.758 51.1785C447.383 51.2839 446.898 51.3367 446.305 51.3367H443.803V42.6121H446.117C446.738 42.6121 447.203 42.6335 447.512 42.6765C447.824 42.7156 448.123 42.8113 448.408 42.9636C448.721 43.1316 448.949 43.3523 449.094 43.6257C449.238 43.8953 449.311 44.2136 449.311 44.5808C449.311 44.991 449.201 45.3582 448.982 45.6824C448.768 46.0066 448.469 46.2605 448.086 46.4441V46.491C448.605 46.6316 449.008 46.8894 449.293 47.2644C449.578 47.6355 449.721 48.1003 449.721 48.6589ZM448.104 44.7449C448.104 44.5339 448.068 44.3523 447.998 44.2C447.928 44.0437 447.814 43.9207 447.658 43.8308C447.471 43.7253 447.262 43.6609 447.031 43.6375C446.801 43.614 446.482 43.6023 446.076 43.6023H444.963V46.157H446.281C446.645 46.157 446.912 46.1394 447.084 46.1042C447.256 46.0652 447.434 45.9871 447.617 45.8699C447.793 45.7566 447.918 45.6082 447.992 45.4246C448.066 45.241 448.104 45.0144 448.104 44.7449ZM448.514 48.7058C448.514 48.3777 448.467 48.1082 448.373 47.8972C448.279 47.6824 448.09 47.5007 447.805 47.3523C447.621 47.2546 447.42 47.1921 447.201 47.1648C446.986 47.1375 446.68 47.1238 446.281 47.1238H444.963V50.3464H445.906C446.414 50.3464 446.814 50.323 447.107 50.2761C447.4 50.2292 447.658 50.1296 447.881 49.9773C448.1 49.825 448.26 49.6531 448.361 49.4617C448.463 49.2664 448.514 49.0144 448.514 48.7058ZM453.635 51.489C452.592 51.489 451.781 51.196 451.203 50.6101C450.629 50.0203 450.342 49.1843 450.342 48.1023C450.342 47.0359 450.621 46.1882 451.18 45.5593C451.738 44.9265 452.469 44.6101 453.371 44.6101C453.777 44.6101 454.137 44.6687 454.449 44.7859C454.762 44.9031 455.035 45.0867 455.27 45.3367C455.504 45.5867 455.684 45.8933 455.809 46.2566C455.934 46.616 455.996 47.0574 455.996 47.5808V48.1785H451.461C451.461 48.9402 451.652 49.5222 452.035 49.9246C452.418 50.3269 452.947 50.5281 453.623 50.5281C453.865 50.5281 454.102 50.5007 454.332 50.446C454.566 50.3914 454.777 50.321 454.965 50.2351C455.164 50.1453 455.332 50.0593 455.469 49.9773C455.605 49.8914 455.719 49.8113 455.809 49.7371H455.873V50.9382C455.744 50.989 455.584 51.0535 455.393 51.1316C455.201 51.2058 455.029 51.2644 454.877 51.3074C454.662 51.366 454.467 51.4109 454.291 51.4421C454.119 51.4734 453.9 51.489 453.635 51.489ZM454.924 47.3347C454.916 47.0378 454.881 46.782 454.818 46.5671C454.756 46.3523 454.666 46.1707 454.549 46.0222C454.42 45.8582 454.254 45.7332 454.051 45.6472C453.852 45.5613 453.604 45.5183 453.307 45.5183C453.014 45.5183 452.764 45.5632 452.557 45.6531C452.354 45.739 452.168 45.866 452 46.0339C451.836 46.2058 451.711 46.3972 451.625 46.6082C451.539 46.8152 451.484 47.0574 451.461 47.3347H454.924ZM459.711 51.4832C459.262 51.4832 458.85 51.4148 458.475 51.2781C458.1 51.1375 457.777 50.9265 457.508 50.6453C457.238 50.364 457.029 50.0105 456.881 49.5847C456.732 49.155 456.658 48.6511 456.658 48.073C456.658 47.4988 456.734 47.0027 456.887 46.5847C457.043 46.1667 457.25 45.8152 457.508 45.53C457.766 45.2449 458.086 45.0261 458.469 44.8738C458.855 44.7175 459.27 44.6394 459.711 44.6394C460.07 44.6394 460.416 44.6902 460.748 44.7917C461.084 44.8933 461.383 45.0105 461.645 45.1433V46.3796H461.58C461.502 46.3132 461.4 46.2371 461.275 46.1511C461.154 46.0652 461.006 45.9773 460.83 45.8875C460.678 45.8093 460.498 45.741 460.291 45.6824C460.084 45.6238 459.885 45.5945 459.693 45.5945C459.123 45.5945 458.664 45.8113 458.316 46.2449C457.973 46.6746 457.801 47.2839 457.801 48.073C457.801 48.8464 457.967 49.45 458.299 49.8835C458.635 50.3132 459.1 50.5281 459.693 50.5281C460.053 50.5281 460.395 50.4539 460.719 50.3054C461.043 50.157 461.33 49.9656 461.58 49.7312H461.645V50.9675C461.535 51.0183 461.398 51.0808 461.234 51.155C461.07 51.2253 460.922 51.2781 460.789 51.3132C460.602 51.3679 460.434 51.4089 460.285 51.4363C460.137 51.4675 459.945 51.4832 459.711 51.4832ZM468.078 51.3367H466.631L464.188 48.1785L463.754 48.6003V51.3367H462.652V42.2195H463.754V47.5574L466.344 44.7917H467.715L465.025 47.5281L468.078 51.3367ZM470.609 51.4656C470.008 51.4656 469.539 51.2957 469.203 50.9558C468.867 50.6121 468.699 50.071 468.699 49.3328V45.7058H467.955V44.7917H468.699V42.9109H469.801V44.7917H471.828V45.7058H469.801V48.8171C469.801 49.1492 469.807 49.405 469.818 49.5847C469.83 49.7644 469.875 49.9324 469.953 50.0886C470.02 50.2253 470.127 50.3289 470.275 50.3992C470.424 50.4656 470.625 50.4988 470.879 50.4988C471.059 50.4988 471.232 50.4734 471.4 50.4226C471.568 50.3679 471.689 50.323 471.764 50.2878H471.828V51.2781C471.621 51.3367 471.41 51.3816 471.195 51.4128C470.984 51.448 470.789 51.4656 470.609 51.4656ZM478.033 48.0671C478.033 49.1687 477.768 50.0203 477.236 50.6218C476.705 51.2195 475.998 51.5183 475.115 51.5183C474.205 51.5183 473.488 51.2097 472.965 50.5925C472.445 49.9714 472.186 49.1296 472.186 48.0671C472.186 46.9734 472.453 46.1238 472.988 45.5183C473.527 44.9128 474.236 44.6101 475.115 44.6101C475.998 44.6101 476.705 44.9128 477.236 45.5183C477.768 46.1199 478.033 46.9695 478.033 48.0671ZM476.896 48.0671C476.896 47.2195 476.742 46.5906 476.434 46.1804C476.125 45.7664 475.686 45.5593 475.115 45.5593C474.541 45.5593 474.098 45.7664 473.785 46.1804C473.477 46.5906 473.322 47.2195 473.322 48.0671C473.322 48.8875 473.477 49.5105 473.785 49.9363C474.098 50.3582 474.541 50.5691 475.115 50.5691C475.682 50.5691 476.119 50.3621 476.428 49.948C476.74 49.53 476.896 48.9031 476.896 48.0671ZM484.309 51.3367H483.207V47.6101C483.207 47.3093 483.191 47.03 483.16 46.7722C483.133 46.5105 483.078 46.3015 482.996 46.1453C482.906 45.9812 482.781 45.8601 482.621 45.782C482.461 45.7 482.242 45.6589 481.965 45.6589C481.691 45.6589 481.408 45.7332 481.115 45.8816C480.826 46.0261 480.543 46.2156 480.266 46.45V51.3367H479.164V44.7917H480.266V45.5183C480.594 45.2253 480.918 45.0007 481.238 44.8445C481.559 44.6882 481.896 44.6101 482.252 44.6101C482.896 44.6101 483.4 44.823 483.764 45.2488C484.127 45.6707 484.309 46.2839 484.309 47.0886V51.3367ZM487.988 49.6667L486.348 53.5046H485.492L486.523 49.6667H487.988ZM498.383 51.3367H493.326V42.6121H494.486V50.3054H498.383V51.3367ZM504.6 48.0671C504.6 49.1687 504.334 50.0203 503.803 50.6218C503.271 51.2195 502.564 51.5183 501.682 51.5183C500.771 51.5183 500.055 51.2097 499.531 50.5925C499.012 49.9714 498.752 49.1296 498.752 48.0671C498.752 46.9734 499.02 46.1238 499.555 45.5183C500.094 44.9128 500.803 44.6101 501.682 44.6101C502.564 44.6101 503.271 44.9128 503.803 45.5183C504.334 46.1199 504.6 46.9695 504.6 48.0671ZM503.463 48.0671C503.463 47.2195 503.309 46.5906 503 46.1804C502.691 45.7664 502.252 45.5593 501.682 45.5593C501.107 45.5593 500.664 45.7664 500.352 46.1804C500.043 46.5906 499.889 47.2195 499.889 48.0671C499.889 48.8875 500.043 49.5105 500.352 49.9363C500.664 50.3582 501.107 50.5691 501.682 50.5691C502.248 50.5691 502.686 50.3621 502.994 49.948C503.307 49.53 503.463 48.9031 503.463 48.0671ZM510.875 51.3367H509.773V47.6101C509.773 47.3093 509.758 47.03 509.727 46.7722C509.699 46.5105 509.645 46.3015 509.562 46.1453C509.473 45.9812 509.348 45.8601 509.188 45.782C509.027 45.7 508.809 45.6589 508.531 45.6589C508.258 45.6589 507.975 45.7332 507.682 45.8816C507.393 46.0261 507.109 46.2156 506.832 46.45V51.3367H505.73V44.7917H506.832V45.5183C507.16 45.2253 507.484 45.0007 507.805 44.8445C508.125 44.6882 508.463 44.6101 508.818 44.6101C509.463 44.6101 509.967 44.823 510.33 45.2488C510.693 45.6707 510.875 46.2839 510.875 47.0886V51.3367ZM517.461 51.3367H516.359V50.6687C516.188 50.8132 516.039 50.9324 515.914 51.0261C515.789 51.1199 515.643 51.2058 515.475 51.2839C515.318 51.3582 515.156 51.4148 514.988 51.4539C514.82 51.4968 514.625 51.5183 514.402 51.5183C514.047 51.5183 513.717 51.4441 513.412 51.2957C513.111 51.1472 512.855 50.9304 512.645 50.6453C512.43 50.3562 512.264 50.0007 512.146 49.5789C512.029 49.1531 511.971 48.6648 511.971 48.114C511.971 47.5398 512.045 47.0437 512.193 46.6257C512.342 46.2039 512.547 45.8367 512.809 45.5242C513.047 45.239 513.334 45.0164 513.67 44.8562C514.01 44.6921 514.365 44.6101 514.736 44.6101C515.064 44.6101 515.35 44.6472 515.592 44.7214C515.834 44.7917 516.09 44.9031 516.359 45.0554V42.2195H517.461V51.3367ZM516.359 49.7429V45.9695C516.086 45.8367 515.84 45.7449 515.621 45.6941C515.406 45.6433 515.172 45.6179 514.918 45.6179C514.352 45.6179 513.908 45.8308 513.588 46.2566C513.268 46.6785 513.107 47.2898 513.107 48.0906C513.107 48.8601 513.23 49.45 513.477 49.8601C513.723 50.2664 514.117 50.4695 514.66 50.4695C514.949 50.4695 515.24 50.405 515.533 50.2761C515.826 50.1433 516.102 49.9656 516.359 49.7429ZM524.439 48.0671C524.439 49.1687 524.174 50.0203 523.643 50.6218C523.111 51.2195 522.404 51.5183 521.521 51.5183C520.611 51.5183 519.895 51.2097 519.371 50.5925C518.852 49.9714 518.592 49.1296 518.592 48.0671C518.592 46.9734 518.859 46.1238 519.395 45.5183C519.934 44.9128 520.643 44.6101 521.521 44.6101C522.404 44.6101 523.111 44.9128 523.643 45.5183C524.174 46.1199 524.439 46.9695 524.439 48.0671ZM523.303 48.0671C523.303 47.2195 523.148 46.5906 522.84 46.1804C522.531 45.7664 522.092 45.5593 521.521 45.5593C520.947 45.5593 520.504 45.7664 520.191 46.1804C519.883 46.5906 519.729 47.2195 519.729 48.0671C519.729 48.8875 519.883 49.5105 520.191 49.9363C520.504 50.3582 520.947 50.5691 521.521 50.5691C522.088 50.5691 522.525 50.3621 522.834 49.948C523.146 49.53 523.303 48.9031 523.303 48.0671ZM530.715 51.3367H529.613V47.6101C529.613 47.3093 529.598 47.03 529.566 46.7722C529.539 46.5105 529.484 46.3015 529.402 46.1453C529.312 45.9812 529.188 45.8601 529.027 45.782C528.867 45.7 528.648 45.6589 528.371 45.6589C528.098 45.6589 527.814 45.7332 527.521 45.8816C527.232 46.0261 526.949 46.2156 526.672 46.45V51.3367H525.57V44.7917H526.672V45.5183C527 45.2253 527.324 45.0007 527.645 44.8445C527.965 44.6882 528.303 44.6101 528.658 44.6101C529.303 44.6101 529.807 44.823 530.17 45.2488C530.533 45.6707 530.715 46.2839 530.715 47.0886V51.3367ZM534.395 49.6667L532.754 53.5046H531.898L532.93 49.6667H534.395ZM539.732 51.3367V42.6121H545.188V43.6433H540.893V46.0339H544.895V47.0652H540.893V50.3054H545.188V51.3367H539.732ZM551.164 51.3367H546.91V50.446H548.492V44.5984H546.91V43.8015C547.508 43.8015 547.947 43.7175 548.229 43.5496C548.514 43.3777 548.674 43.0554 548.709 42.5828H549.617V50.446H551.164V51.3367ZM558.295 48.5066C558.295 48.9558 558.221 49.3699 558.072 49.7488C557.924 50.1277 557.725 50.4441 557.475 50.698C557.213 50.9675 556.92 51.1726 556.596 51.3132C556.271 51.45 555.914 51.5183 555.523 51.5183C555.129 51.5183 554.77 51.4519 554.445 51.3191C554.125 51.1863 553.842 50.989 553.596 50.7273C553.295 50.4109 553.059 49.989 552.887 49.4617C552.719 48.9304 552.635 48.2781 552.635 47.5046C552.635 46.7468 552.713 46.0632 552.869 45.4539C553.025 44.8406 553.266 44.3074 553.59 43.8542C553.906 43.4128 554.314 43.0691 554.814 42.823C555.314 42.573 555.893 42.448 556.549 42.448C556.744 42.448 556.926 42.4578 557.094 42.4773C557.262 42.4968 557.41 42.5281 557.539 42.571V43.6902H557.486C557.381 43.6316 557.229 43.5789 557.029 43.532C556.83 43.4812 556.617 43.4558 556.391 43.4558C555.664 43.4558 555.076 43.7019 554.627 44.1941C554.182 44.6824 553.918 45.4089 553.836 46.3738C554.113 46.1785 554.398 46.0281 554.691 45.9226C554.984 45.8171 555.305 45.7644 555.652 45.7644C555.992 45.7644 556.289 45.7996 556.543 45.8699C556.801 45.9363 557.068 46.073 557.346 46.28C557.666 46.5222 557.904 46.8289 558.061 47.2C558.217 47.571 558.295 48.0066 558.295 48.5066ZM557.105 48.5535C557.105 48.1941 557.059 47.8933 556.965 47.6511C556.871 47.4089 556.719 47.2019 556.508 47.03C556.355 46.905 556.182 46.823 555.986 46.7839C555.795 46.7449 555.598 46.7253 555.395 46.7253C555.121 46.7253 554.855 46.7664 554.598 46.8484C554.34 46.9304 554.086 47.0496 553.836 47.2058C553.828 47.2917 553.822 47.3757 553.818 47.4578C553.814 47.5359 553.812 47.6355 553.812 47.7566C553.812 48.3621 553.871 48.8503 553.988 49.2214C554.109 49.5925 554.258 49.8738 554.434 50.0652C554.602 50.2488 554.773 50.3777 554.949 50.4519C555.129 50.5261 555.322 50.5632 555.529 50.5632C555.998 50.5632 556.377 50.3953 556.666 50.0593C556.959 49.7234 557.105 49.2214 557.105 48.5535ZM565.432 43.4441C565.221 43.4441 565.01 43.4695 564.799 43.5203C564.588 43.571 564.381 43.6375 564.178 43.7195C563.99 43.7976 563.826 43.8796 563.686 43.9656C563.549 44.0515 563.426 44.1316 563.316 44.2058H563.246V42.9695C563.5 42.8328 563.844 42.7097 564.277 42.6003C564.715 42.4871 565.131 42.4304 565.525 42.4304C565.92 42.4304 566.264 42.4714 566.557 42.5535C566.854 42.6316 567.121 42.7546 567.359 42.9226C567.617 43.1101 567.811 43.3367 567.939 43.6023C568.072 43.8679 568.139 44.1785 568.139 44.5339C568.139 45.0144 567.98 45.4363 567.664 45.7996C567.348 46.1628 566.969 46.3933 566.527 46.491V46.573C566.711 46.6082 566.906 46.6687 567.113 46.7546C567.324 46.8406 567.52 46.9675 567.699 47.1355C567.879 47.3035 568.025 47.5203 568.139 47.7859C568.252 48.0476 568.309 48.3679 568.309 48.7468C568.309 49.1414 568.24 49.5046 568.104 49.8367C567.971 50.1648 567.781 50.4558 567.535 50.7097C567.281 50.9753 566.975 51.1765 566.615 51.3132C566.256 51.45 565.848 51.5183 565.391 51.5183C564.953 51.5183 564.52 51.4656 564.09 51.3601C563.66 51.2546 563.299 51.1277 563.006 50.9792V49.7429H563.088C563.334 49.9226 563.664 50.0945 564.078 50.2585C564.492 50.4226 564.906 50.5046 565.32 50.5046C565.559 50.5046 565.797 50.4675 566.035 50.3933C566.277 50.3152 566.479 50.1902 566.639 50.0183C566.795 49.8464 566.914 49.657 566.996 49.45C567.078 49.2429 567.119 48.9812 567.119 48.6648C567.119 48.3484 567.072 48.0886 566.979 47.8855C566.889 47.6824 566.762 47.5222 566.598 47.405C566.434 47.2878 566.238 47.2078 566.012 47.1648C565.789 47.1179 565.547 47.0945 565.285 47.0945H564.787V46.1218H565.174C565.701 46.1218 566.129 45.9968 566.457 45.7468C566.789 45.4968 566.955 45.1335 566.955 44.657C566.955 44.4382 566.912 44.2507 566.826 44.0945C566.74 43.9343 566.631 43.8074 566.498 43.7136C566.35 43.6121 566.186 43.5417 566.006 43.5027C565.826 43.4636 565.635 43.4441 565.432 43.4441ZM573.16 49.0691C573.16 49.8347 572.926 50.4246 572.457 50.8386C571.992 51.2527 571.367 51.4597 570.582 51.4597C570.395 51.4597 570.143 51.4421 569.826 51.407C569.514 51.3757 569.252 51.3367 569.041 51.2898V50.1824H569.105C569.266 50.2371 569.463 50.2976 569.697 50.364C569.936 50.4304 570.178 50.4636 570.424 50.4636C570.783 50.4636 571.068 50.4226 571.279 50.3406C571.494 50.2585 571.652 50.1414 571.754 49.989C571.859 49.8328 571.926 49.6414 571.953 49.4148C571.984 49.1882 572 48.9265 572 48.6296V43.5378H570.154V42.6121H573.16V49.0691ZM576.916 51.3367V43.6433H573.986V42.6121H581.006V43.6433H578.076V51.3367H576.916Z" fill="#090C9B"/>
<rect y="64.9277" width="595" height="6.1836" fill="#090C9B" fill-opacity="0.2"/>
</svg>
